# MagicaVoxel @ Ephtracy

# group
o 

# material
mtllib knight.mtl
usemtl palette

# normals
vn -1 0 0
vn 1 0 0
vn 0 0 1
vn 0 0 -1
vn 0 -1 0
vn 0 1 0

# texcoords
vt 0.0292969 0.5
vt 0.0449219 0.5
vt 0.0605469 0.5
vt 0.208984 0.5
vt 0.845703 0.5
vt 0.853516 0.5
vt 0.970703 0.5
vt 0.974609 0.5
vt 0.978516 0.5
vt 0.986328 0.5

# verts
v -0.9 1 0.5
v -0.9 1 0.3
v -0.9 1.2 0.5
v -0.9 1.2 0.3
v -0.7 0.6 0.5
v -0.7 0.6 0.3
v -0.7 0.8 0.5
v -0.7 0.8 0.3
v -0.7 0.8 -0.1
v -0.7 1 0.5
v -0.7 1 0.3
v -0.7 1 0.1
v -0.7 1.2 0.5
v -0.7 1.2 0.3
v -0.7 1.2 0.1
v -0.7 1.2 -0.1
v -0.7 2 0.5
v -0.7 2 0.3
v -0.5 0.4 0.2
v -0.5 0.4 -0.3
v -0.5 0.6 0.2
v -0.5 0.6 -0.3
v -0.5 0.8 0.2
v -0.5 0.8 -0.1
v -0.5 0.8 -0.3
v -0.5 1 0.2
v -0.5 1 0.1
v -0.5 1.2 0.1
v -0.5 1.2 -0.1
v -0.5 1.4 0.2
v -0.5 1.4 -0.3
v -0.4 0 0.1
v -0.4 0 -0.1
v -0.4 0.2 0.1
v -0.4 0.2 -0.1
v -0.4 0.4 0.1
v -0.4 0.4 -0.1
v -0.2 1.4 0.2
v -0.2 1.4 -0.1
v -0.2 1.4 -0.2
v -0.2 1.6 0.2
v -0.2 1.6 -0.1
v -0.2 1.8 0.2
v -0.2 1.8 -0.1
v -0.2 1.8 -0.2
v -0.2 2 0.2
v -0.2 2 0
v -0.2 2 -0.2
v -0.2 2 -0.4
v -0.2 2.2 0
v -0.2 2.2 -0.4
v 0.2 0 0.1
v 0.2 0 -0.1
v 0.2 0.2 0.1
v 0.2 0.2 -0.1
v 0.2 0.4 0.1
v 0.2 0.4 -0.1
v 0.3 0.4 0.4
v 0.3 0.4 0.2
v 0.3 0.6 0.2
v 0.3 0.8 0.4
v 0.3 0.8 0.2
v 0.3 1 0.4
v 0.3 1 0.2
v 0.3 1.4 0.4
v 0.3 1.4 0.2
v -0.5 0.6 0.5
v -0.5 0.6 0.3
v -0.5 0.8 0.5
v -0.5 0.8 0.3
v -0.5 0.8 0.2
v -0.5 1 0.5
v -0.5 1 0.3
v -0.5 1 0.2
v -0.5 1.2 0.5
v -0.5 1.2 0.3
v -0.5 2 0.5
v -0.5 2 0.3
v -0.3 1 0.5
v -0.3 1 0.3
v -0.3 1.2 0.5
v -0.3 1.2 0.3
v -0.2 0 0.1
v -0.2 0 -0.1
v -0.2 0.2 0.1
v -0.2 0.2 -0.1
v -0.2 0.4 0.1
v -0.2 0.4 -0.1
v 0.2 1.4 0.2
v 0.2 1.4 -0.1
v 0.2 1.4 -0.2
v 0.2 1.6 0.2
v 0.2 1.6 -0.1
v 0.2 1.8 0.2
v 0.2 1.8 -0.1
v 0.2 1.8 -0.2
v 0.2 2 0.2
v 0.2 2 0
v 0.2 2 -0.2
v 0.2 2 -0.4
v 0.2 2.2 0
v 0.2 2.2 -0.4
v 0.4 0 0.1
v 0.4 0 -0.1
v 0.4 0.2 0.1
v 0.4 0.2 -0.1
v 0.4 0.4 0.1
v 0.4 0.4 -0.1
v 0.5 0.4 0.2
v 0.5 0.4 -0.3
v 0.5 0.6 0.2
v 0.5 0.6 -0.3
v 0.5 0.8 0.2
v 0.5 0.8 -0.1
v 0.5 0.8 -0.3
v 0.5 1 0.2
v 0.5 1 0.1
v 0.5 1.2 0.1
v 0.5 1.2 -0.1
v 0.5 1.4 0.2
v 0.5 1.4 -0.3
v 0.7 0.8 0.2
v 0.7 0.8 -0.1
v 0.7 1 0.2
v 0.7 1 0.1
v 0.7 1.2 0.1
v 0.7 1.2 -0.1
v 0.9 0.4 0.4
v 0.9 0.4 0.2
v 0.9 0.8 0.4
v 0.9 0.8 0.2
v 0.9 1 0.4
v 0.9 1 0.2
v 0.9 1.4 0.4
v 0.9 1.4 0.2
v -0.9 1 0.5
v -0.9 1.2 0.5
v -0.7 0.6 0.5
v -0.7 0.8 0.5
v -0.7 1 0.5
v -0.7 1.2 0.5
v -0.7 2 0.5
v -0.5 0.6 0.5
v -0.5 0.8 0.5
v -0.5 1 0.5
v -0.5 1.2 0.5
v -0.5 2 0.5
v -0.3 1 0.5
v -0.3 1.2 0.5
v 0.3 0.4 0.4
v 0.3 0.8 0.4
v 0.3 1 0.4
v 0.3 1.4 0.4
v 0.5 0.4 0.4
v 0.5 0.8 0.4
v 0.5 1 0.4
v 0.5 1.4 0.4
v 0.7 0.4 0.4
v 0.7 0.8 0.4
v 0.7 1 0.4
v 0.7 1.4 0.4
v 0.9 0.4 0.4
v 0.9 0.8 0.4
v 0.9 1 0.4
v 0.9 1.4 0.4
v -0.5 0.4 0.2
v -0.5 0.6 0.2
v -0.5 0.8 0.2
v -0.5 1 0.2
v -0.5 1.4 0.2
v -0.2 1.4 0.2
v -0.2 1.6 0.2
v -0.2 1.8 0.2
v -0.2 2 0.2
v 0.2 1.4 0.2
v 0.2 1.6 0.2
v 0.2 1.8 0.2
v 0.2 2 0.2
v 0.3 0.4 0.2
v 0.3 0.6 0.2
v 0.3 0.8 0.2
v 0.3 1 0.2
v 0.3 1.4 0.2
v -0.7 1 0.1
v -0.7 1.2 0.1
v -0.5 1 0.1
v -0.5 1.2 0.1
v -0.4 0 0.1
v -0.4 0.2 0.1
v -0.4 0.4 0.1
v -0.2 0 0.1
v -0.2 0.2 0.1
v -0.2 0.4 0.1
v 0.2 0 0.1
v 0.2 0.2 0.1
v 0.2 0.4 0.1
v 0.3 0.4 0.1
v 0.4 0 0.1
v 0.4 0.2 0.1
v 0.4 0.4 0.1
v 0.5 1 0.1
v 0.5 1.2 0.1
v 0.7 1 0.1
v 0.7 1.2 0.1
v -0.2 2 0
v -0.2 2.2 0
v 0.2 2 0
v 0.2 2.2 0
v -0.9 1 0.3
v -0.9 1.2 0.3
v -0.7 0.6 0.3
v -0.7 0.8 0.3
v -0.7 1 0.3
v -0.7 1.2 0.3
v -0.7 2 0.3
v -0.5 0.6 0.3
v -0.5 0.8 0.3
v -0.5 1 0.3
v -0.5 1.2 0.3
v -0.5 2 0.3
v -0.3 1 0.3
v -0.3 1.2 0.3
v 0.5 0.4 0.2
v 0.5 0.6 0.2
v 0.5 0.8 0.2
v 0.5 1 0.2
v 0.5 1.4 0.2
v 0.7 0.4 0.2
v 0.7 0.8 0.2
v 0.7 1 0.2
v 0.7 1.4 0.2
v 0.9 0.4 0.2
v 0.9 0.8 0.2
v 0.9 1 0.2
v 0.9 1.4 0.2
v -0.7 0.8 -0.1
v -0.7 1.2 -0.1
v -0.5 0.8 -0.1
v -0.5 1.2 -0.1
v -0.4 0 -0.1
v -0.4 0.2 -0.1
v -0.4 0.4 -0.1
v -0.2 0 -0.1
v -0.2 0.2 -0.1
v -0.2 0.4 -0.1
v 0.2 0 -0.1
v 0.2 0.2 -0.1
v 0.2 0.4 -0.1
v 0.4 0 -0.1
v 0.4 0.2 -0.1
v 0.4 0.4 -0.1
v 0.5 0.8 -0.1
v 0.5 1.2 -0.1
v 0.7 0.8 -0.1
v 0.7 1.2 -0.1
v -0.2 1.4 -0.2
v -0.2 1.8 -0.2
v -0.2 2 -0.2
v 0.2 1.4 -0.2
v 0.2 1.8 -0.2
v 0.2 2 -0.2
v -0.5 0.4 -0.3
v -0.5 0.6 -0.3
v -0.5 0.8 -0.3
v -0.5 1.4 -0.3
v 0.5 0.4 -0.3
v 0.5 0.6 -0.3
v 0.5 0.8 -0.3
v 0.5 1.4 -0.3
v -0.2 2 -0.4
v -0.2 2.2 -0.4
v 0.2 2 -0.4
v 0.2 2.2 -0.4
v -0.4 0 0.1
v -0.2 0 0.1
v 0.2 0 0.1
v 0.4 0 0.1
v -0.4 0 -0.1
v -0.2 0 -0.1
v 0.2 0 -0.1
v 0.4 0 -0.1
v 0.3 0.4 0.4
v 0.5 0.4 0.4
v 0.7 0.4 0.4
v 0.9 0.4 0.4
v -0.5 0.4 0.2
v 0.3 0.4 0.2
v 0.4 0.4 0.2
v 0.5 0.4 0.2
v 0.7 0.4 0.2
v 0.9 0.4 0.2
v -0.4 0.4 0.1
v -0.2 0.4 0.1
v 0.2 0.4 0.1
v 0.3 0.4 0.1
v 0.4 0.4 0.1
v -0.4 0.4 -0.1
v -0.2 0.4 -0.1
v 0.2 0.4 -0.1
v 0.4 0.4 -0.1
v -0.4 0.4 -0.2
v 0.4 0.4 -0.2
v -0.5 0.4 -0.3
v 0.5 0.4 -0.3
v -0.7 0.6 0.5
v -0.5 0.6 0.5
v -0.7 0.6 0.3
v -0.5 0.6 0.3
v -0.7 0.8 0.3
v -0.5 0.8 0.3
v -0.5 0.8 0.2
v 0.5 0.8 0.2
v 0.7 0.8 0.2
v -0.7 0.8 -0.1
v -0.5 0.8 -0.1
v 0.5 0.8 -0.1
v 0.7 0.8 -0.1
v -0.9 1 0.5
v -0.7 1 0.5
v -0.5 1 0.5
v -0.3 1 0.5
v -0.9 1 0.3
v -0.7 1 0.3
v -0.5 1 0.3
v -0.3 1 0.3
v -0.2 2 -0.2
v 0.2 2 -0.2
v -0.2 2 -0.4
v 0.2 2 -0.4
v -0.7 1 0.3
v -0.5 1 0.3
v -0.5 1 0.2
v 0.5 1 0.2
v 0.7 1 0.2
v -0.7 1 0.1
v -0.5 1 0.1
v 0.5 1 0.1
v 0.7 1 0.1
v -0.9 1.2 0.5
v -0.7 1.2 0.5
v -0.5 1.2 0.5
v -0.3 1.2 0.5
v -0.9 1.2 0.3
v -0.7 1.2 0.3
v -0.5 1.2 0.3
v -0.3 1.2 0.3
v -0.7 1.2 0.1
v -0.5 1.2 0.1
v 0.5 1.2 0.1
v 0.7 1.2 0.1
v -0.7 1.2 -0.1
v -0.5 1.2 -0.1
v 0.5 1.2 -0.1
v 0.7 1.2 -0.1
v 0.3 1.4 0.4
v 0.5 1.4 0.4
v 0.7 1.4 0.4
v 0.9 1.4 0.4
v -0.5 1.4 0.2
v -0.2 1.4 0.2
v 0.2 1.4 0.2
v 0.3 1.4 0.2
v 0.5 1.4 0.2
v 0.7 1.4 0.2
v 0.9 1.4 0.2
v -0.2 1.4 -0.1
v 0.2 1.4 -0.1
v -0.2 1.4 -0.2
v 0.2 1.4 -0.2
v -0.5 1.4 -0.3
v 0.5 1.4 -0.3
v -0.7 2 0.5
v -0.5 2 0.5
v -0.7 2 0.3
v -0.5 2 0.3
v -0.2 2 0.2
v 0.2 2 0.2
v -0.2 2 0
v 0.2 2 0
v -0.2 2.2 0
v 0.2 2.2 0
v -0.2 2.2 -0.4
v 0.2 2.2 -0.4

# faces
f 3/2/1 2/2/1 1/2/1
f 4/2/1 2/2/1 3/2/1
f 7/2/1 6/2/1 5/2/1
f 8/2/1 6/2/1 7/2/1
f 10/3/1 8/3/1 7/3/1
f 11/8/1 9/8/1 8/8/1
f 11/3/1 8/3/1 10/3/1
f 12/8/1 9/8/1 11/8/1
f 15/8/1 9/8/1 12/8/1
f 16/8/1 9/8/1 15/8/1
f 17/7/1 14/7/1 13/7/1
f 18/7/1 14/7/1 17/7/1
f 21/9/1 20/9/1 19/9/1
f 22/9/1 20/9/1 21/9/1
f 23/4/1 22/4/1 21/4/1
f 24/4/1 22/4/1 23/4/1
f 25/4/1 22/4/1 24/4/1
f 28/8/1 27/8/1 26/8/1
f 29/8/1 25/8/1 24/8/1
f 30/8/1 28/8/1 26/8/1
f 30/8/1 29/8/1 28/8/1
f 31/8/1 25/8/1 29/8/1
f 31/8/1 29/8/1 30/8/1
f 34/10/1 33/10/1 32/10/1
f 35/10/1 33/10/1 34/10/1
f 36/9/1 35/9/1 34/9/1
f 37/9/1 35/9/1 36/9/1
f 41/1/1 39/1/1 38/1/1
f 42/9/1 40/9/1 39/9/1
f 42/1/1 39/1/1 41/1/1
f 43/3/1 42/3/1 41/3/1
f 44/9/1 40/9/1 42/9/1
f 44/3/1 42/3/1 43/3/1
f 45/9/1 40/9/1 44/9/1
f 46/8/1 44/8/1 43/8/1
f 46/8/1 45/8/1 44/8/1
f 47/8/1 45/8/1 46/8/1
f 48/8/1 45/8/1 47/8/1
f 50/6/1 48/6/1 47/6/1
f 50/6/1 49/6/1 48/6/1
f 51/6/1 49/6/1 50/6/1
f 54/10/1 53/10/1 52/10/1
f 55/10/1 53/10/1 54/10/1
f 56/9/1 55/9/1 54/9/1
f 57/9/1 55/9/1 56/9/1
f 60/7/1 59/7/1 58/7/1
f 61/7/1 60/7/1 58/7/1
f 62/7/1 60/7/1 61/7/1
f 63/2/1 62/2/1 61/2/1
f 64/2/1 62/2/1 63/2/1
f 65/7/1 64/7/1 63/7/1
f 66/7/1 64/7/1 65/7/1
f 67/2/2 68/2/2 69/2/2
f 69/2/2 68/2/2 70/2/2
f 69/3/2 70/3/2 72/3/2
f 70/8/2 71/8/2 73/8/2
f 72/3/2 70/3/2 73/3/2
f 73/8/2 71/8/2 74/8/2
f 75/7/2 76/7/2 77/7/2
f 77/7/2 76/7/2 78/7/2
f 79/2/2 80/2/2 81/2/2
f 81/2/2 80/2/2 82/2/2
f 83/10/2 84/10/2 85/10/2
f 85/10/2 84/10/2 86/10/2
f 85/9/2 86/9/2 87/9/2
f 87/9/2 86/9/2 88/9/2
f 89/1/2 90/1/2 92/1/2
f 90/9/2 91/9/2 93/9/2
f 92/1/2 90/1/2 93/1/2
f 92/3/2 93/3/2 94/3/2
f 93/9/2 91/9/2 95/9/2
f 94/3/2 93/3/2 95/3/2
f 95/9/2 91/9/2 96/9/2
f 94/8/2 95/8/2 97/8/2
f 95/8/2 96/8/2 97/8/2
f 97/8/2 96/8/2 98/8/2
f 98/8/2 96/8/2 99/8/2
f 98/6/2 99/6/2 101/6/2
f 99/6/2 100/6/2 101/6/2
f 101/6/2 100/6/2 102/6/2
f 103/10/2 104/10/2 105/10/2
f 105/10/2 104/10/2 106/10/2
f 105/9/2 106/9/2 107/9/2
f 107/9/2 106/9/2 108/9/2
f 109/9/2 110/9/2 111/9/2
f 111/9/2 110/9/2 112/9/2
f 111/4/2 112/4/2 113/4/2
f 113/4/2 112/4/2 114/4/2
f 114/4/2 112/4/2 115/4/2
f 116/8/2 117/8/2 118/8/2
f 114/8/2 115/8/2 119/8/2
f 116/8/2 118/8/2 120/8/2
f 118/8/2 119/8/2 120/8/2
f 119/8/2 115/8/2 121/8/2
f 120/8/2 119/8/2 121/8/2
f 122/8/2 123/8/2 124/8/2
f 124/8/2 123/8/2 125/8/2
f 125/8/2 123/8/2 126/8/2
f 126/8/2 123/8/2 127/8/2
f 128/7/2 129/7/2 130/7/2
f 130/7/2 129/7/2 131/7/2
f 130/2/2 131/2/2 132/2/2
f 132/2/2 131/2/2 133/2/2
f 132/7/2 133/7/2 134/7/2
f 134/7/2 133/7/2 135/7/2
f 140/2/3 137/2/3 136/2/3
f 141/2/3 137/2/3 140/2/3
f 143/2/3 139/2/3 138/2/3
f 144/3/3 140/3/3 139/3/3
f 144/2/3 139/2/3 143/2/3
f 145/5/3 141/5/3 140/5/3
f 145/3/3 140/3/3 144/3/3
f 146/7/3 142/7/3 141/7/3
f 146/5/3 141/5/3 145/5/3
f 147/7/3 142/7/3 146/7/3
f 148/2/3 146/2/3 145/2/3
f 149/2/3 146/2/3 148/2/3
f 154/7/3 151/7/3 150/7/3
f 155/2/3 152/2/3 151/2/3
f 155/7/3 151/7/3 154/7/3
f 156/7/3 153/7/3 152/7/3
f 156/2/3 152/2/3 155/2/3
f 157/7/3 153/7/3 156/7/3
f 158/2/3 155/2/3 154/2/3
f 159/5/3 156/5/3 155/5/3
f 159/2/3 155/2/3 158/2/3
f 160/2/3 157/2/3 156/2/3
f 160/5/3 156/5/3 159/5/3
f 161/2/3 157/2/3 160/2/3
f 162/7/3 159/7/3 158/7/3
f 163/2/3 160/2/3 159/2/3
f 163/7/3 159/7/3 162/7/3
f 164/7/3 161/7/3 160/7/3
f 164/2/3 160/2/3 163/2/3
f 165/7/3 161/7/3 164/7/3
f 171/8/3 169/8/3 168/8/3
f 171/8/3 170/8/3 169/8/3
f 175/8/3 171/8/3 168/8/3
f 175/1/3 172/1/3 171/1/3
f 176/3/3 173/3/3 172/3/3
f 176/1/3 172/1/3 175/1/3
f 177/8/3 174/8/3 173/8/3
f 177/3/3 173/3/3 176/3/3
f 178/8/3 174/8/3 177/8/3
f 179/9/3 167/9/3 166/9/3
f 180/4/3 168/4/3 167/4/3
f 180/9/3 167/9/3 179/9/3
f 181/8/3 175/8/3 168/8/3
f 181/4/3 168/4/3 180/4/3
f 182/8/3 175/8/3 181/8/3
f 183/8/3 175/8/3 182/8/3
f 186/8/3 185/8/3 184/8/3
f 187/8/3 185/8/3 186/8/3
f 191/10/3 189/10/3 188/10/3
f 192/9/3 190/9/3 189/9/3
f 192/10/3 189/10/3 191/10/3
f 193/9/3 190/9/3 192/9/3
f 197/9/3 196/9/3 195/9/3
f 198/10/3 195/10/3 194/10/3
f 199/9/3 197/9/3 195/9/3
f 199/10/3 195/10/3 198/10/3
f 200/9/3 197/9/3 199/9/3
f 203/8/3 202/8/3 201/8/3
f 204/8/3 202/8/3 203/8/3
f 207/6/3 206/6/3 205/6/3
f 208/6/3 206/6/3 207/6/3
f 209/2/4 210/2/4 213/2/4
f 213/2/4 210/2/4 214/2/4
f 211/2/4 212/2/4 216/2/4
f 216/2/4 212/2/4 217/2/4
f 213/5/4 214/5/4 218/5/4
f 214/7/4 215/7/4 219/7/4
f 218/5/4 214/5/4 219/5/4
f 219/7/4 215/7/4 220/7/4
f 218/2/4 219/2/4 221/2/4
f 221/2/4 219/2/4 222/2/4
f 223/2/4 224/2/4 228/2/4
f 224/2/4 225/2/4 228/2/4
f 228/2/4 225/2/4 229/2/4
f 226/2/4 227/2/4 230/2/4
f 230/2/4 227/2/4 231/2/4
f 228/7/4 229/7/4 232/7/4
f 229/2/4 230/2/4 233/2/4
f 232/7/4 229/7/4 233/7/4
f 230/7/4 231/7/4 234/7/4
f 233/2/4 230/2/4 234/2/4
f 234/7/4 231/7/4 235/7/4
f 236/8/4 237/8/4 238/8/4
f 238/8/4 237/8/4 239/8/4
f 240/10/4 241/10/4 243/10/4
f 241/9/4 242/9/4 244/9/4
f 243/10/4 241/10/4 244/10/4
f 244/9/4 242/9/4 245/9/4
f 246/10/4 247/10/4 249/10/4
f 247/9/4 248/9/4 250/9/4
f 249/10/4 247/10/4 250/10/4
f 250/9/4 248/9/4 251/9/4
f 252/8/4 253/8/4 254/8/4
f 254/8/4 253/8/4 255/8/4
f 256/9/4 257/9/4 259/9/4
f 257/8/4 258/8/4 260/8/4
f 259/9/4 257/9/4 260/9/4
f 260/8/4 258/8/4 261/8/4
f 262/9/4 263/9/4 266/9/4
f 263/4/4 264/4/4 267/4/4
f 266/9/4 263/9/4 267/9/4
f 264/8/4 265/8/4 268/8/4
f 267/4/4 264/4/4 268/4/4
f 268/8/4 265/8/4 269/8/4
f 270/6/4 271/6/4 272/6/4
f 272/6/4 271/6/4 273/6/4
f 278/10/5 275/10/5 274/10/5
f 279/10/5 275/10/5 278/10/5
f 280/10/5 277/10/5 276/10/5
f 281/10/5 277/10/5 280/10/5
f 287/7/5 283/7/5 282/7/5
f 288/7/5 283/7/5 287/7/5
f 289/2/5 284/2/5 283/2/5
f 289/7/5 283/7/5 288/7/5
f 290/7/5 285/7/5 284/7/5
f 290/2/5 284/2/5 289/2/5
f 291/7/5 285/7/5 290/7/5
f 292/9/5 287/9/5 286/9/5
f 293/9/5 287/9/5 292/9/5
f 294/9/5 287/9/5 293/9/5
f 295/8/5 288/8/5 287/8/5
f 295/9/5 287/9/5 294/9/5
f 296/9/5 289/9/5 288/9/5
f 296/8/5 288/8/5 295/8/5
f 297/9/5 292/9/5 286/9/5
f 298/8/5 294/8/5 293/8/5
f 299/8/5 294/8/5 298/8/5
f 300/9/5 289/9/5 296/9/5
f 301/8/5 299/8/5 298/8/5
f 301/8/5 300/8/5 299/8/5
f 301/9/5 297/9/5 286/9/5
f 301/8/5 298/8/5 297/8/5
f 302/9/5 289/9/5 300/9/5
f 302/8/5 300/8/5 301/8/5
f 303/9/5 301/9/5 286/9/5
f 303/9/5 302/9/5 301/9/5
f 304/9/5 289/9/5 302/9/5
f 304/9/5 302/9/5 303/9/5
f 307/2/5 306/2/5 305/2/5
f 308/2/5 306/2/5 307/2/5
f 311/8/5 310/8/5 309/8/5
f 314/8/5 311/8/5 309/8/5
f 315/8/5 311/8/5 314/8/5
f 316/8/5 313/8/5 312/8/5
f 317/8/5 313/8/5 316/8/5
f 322/2/5 319/2/5 318/2/5
f 323/2/5 319/2/5 322/2/5
f 324/2/5 321/2/5 320/2/5
f 325/2/5 321/2/5 324/2/5
f 328/6/5 327/6/5 326/6/5
f 329/6/5 327/6/5 328/6/5
f 330/8/6 331/8/6 332/8/6
f 330/8/6 332/8/6 335/8/6
f 335/8/6 332/8/6 336/8/6
f 333/8/6 334/8/6 337/8/6
f 337/8/6 334/8/6 338/8/6
f 339/2/6 340/2/6 343/2/6
f 343/2/6 340/2/6 344/2/6
f 341/2/6 342/2/6 345/2/6
f 345/2/6 342/2/6 346/2/6
f 347/8/6 348/8/6 351/8/6
f 351/8/6 348/8/6 352/8/6
f 349/8/6 350/8/6 353/8/6
f 353/8/6 350/8/6 354/8/6
f 355/7/6 356/7/6 362/7/6
f 356/2/6 357/2/6 363/2/6
f 362/7/6 356/7/6 363/7/6
f 357/7/6 358/7/6 364/7/6
f 363/2/6 357/2/6 364/2/6
f 364/7/6 358/7/6 365/7/6
f 359/8/6 360/8/6 366/8/6
f 361/8/6 362/8/6 367/8/6
f 362/8/6 363/8/6 367/8/6
f 359/8/6 366/8/6 368/8/6
f 367/8/6 363/8/6 369/8/6
f 359/8/6 368/8/6 370/8/6
f 368/8/6 369/8/6 370/8/6
f 369/8/6 363/8/6 371/8/6
f 370/8/6 369/8/6 371/8/6
f 372/7/6 373/7/6 374/7/6
f 374/7/6 373/7/6 375/7/6
f 376/8/6 377/8/6 378/8/6
f 378/8/6 377/8/6 379/8/6
f 380/6/6 381/6/6 382/6/6
f 382/6/6 381/6/6 383/6/6
