# MagicaVoxel @ Ephtracy

# group
o 

# material
mtllib spike1.mtl
usemtl palette

# normals
vn -1 0 0
vn 1 0 0
vn 0 0 1
vn 0 0 -1
vn 0 -1 0
vn 0 1 0

# texcoords
vt 0.376953 0.5
vt 0.412109 0.5
vt 0.548828 0.5

# verts
v -1 0 1
v -1 0 -1
v -1 0.1 1
v -1 0.1 -1
v -0.6 0 0.7
v -0.6 0 0.6
v -0.6 0 -0.6
v -0.6 0 -0.7
v -0.6 0.1 0.7
v -0.6 0.1 0.6
v -0.6 0.1 -0.6
v -0.6 0.1 -0.7
v -0.5 0 0.6
v -0.5 0 0.5
v -0.5 0 -0.5
v -0.5 0 -0.6
v -0.5 0.1 0.6
v -0.5 0.1 0.5
v -0.5 0.1 -0.5
v -0.5 0.1 -0.6
v -0.4 0 0.5
v -0.4 0 0.4
v -0.4 0 -0.4
v -0.4 0 -0.5
v -0.4 0.1 0.5
v -0.4 0.1 0.4
v -0.4 0.1 -0.4
v -0.4 0.1 -0.5
v -0.3 0 0.4
v -0.3 0 0.3
v -0.3 0 -0.3
v -0.3 0 -0.4
v -0.3 0.1 0.4
v -0.3 0.1 0.3
v -0.3 0.1 -0.3
v -0.3 0.1 -0.4
v -0.2 0 0.3
v -0.2 0 0.2
v -0.2 0 -0.2
v -0.2 0 -0.3
v -0.2 0.1 0.3
v -0.2 0.1 0.2
v -0.2 0.1 -0.2
v -0.2 0.1 -0.3
v -0.1 0 0.2
v -0.1 0 0.1
v -0.1 0 -0.1
v -0.1 0 -0.2
v -0.1 0.1 0.2
v -0.1 0.1 0.1
v -0.1 0.1 -0.1
v -0.1 0.1 -0.2
v 0.1 0 0.1
v 0.1 0 -0.1
v 0.1 0.1 0.1
v 0.1 0.1 -0.1
v 0.2 0 0.2
v 0.2 0 0.1
v 0.2 0 -0.1
v 0.2 0 -0.2
v 0.2 0.1 0.2
v 0.2 0.1 0.1
v 0.2 0.1 -0.1
v 0.2 0.1 -0.2
v 0.3 0 0.3
v 0.3 0 0.2
v 0.3 0 -0.2
v 0.3 0 -0.3
v 0.3 0.1 0.3
v 0.3 0.1 0.2
v 0.3 0.1 -0.2
v 0.3 0.1 -0.3
v 0.4 0 0.4
v 0.4 0 0.3
v 0.4 0 -0.3
v 0.4 0 -0.4
v 0.4 0.1 0.4
v 0.4 0.1 0.3
v 0.4 0.1 -0.3
v 0.4 0.1 -0.4
v 0.5 0 0.5
v 0.5 0 0.4
v 0.5 0 -0.4
v 0.5 0 -0.5
v 0.5 0.1 0.5
v 0.5 0.1 0.4
v 0.5 0.1 -0.4
v 0.5 0.1 -0.5
v 0.6 0 0.6
v 0.6 0 0.5
v 0.6 0 -0.5
v 0.6 0 -0.6
v 0.6 0.1 0.6
v 0.6 0.1 0.5
v 0.6 0.1 -0.5
v 0.6 0.1 -0.6
v 0.7 0 0.7
v 0.7 0 0.6
v 0.7 0 -0.6
v 0.7 0 -0.7
v 0.7 0.1 0.7
v 0.7 0.1 0.6
v 0.7 0.1 -0.6
v 0.7 0.1 -0.7
v -0.7 0 0.7
v -0.7 0 0.6
v -0.7 0 -0.6
v -0.7 0 -0.7
v -0.7 0.1 0.7
v -0.7 0.1 0.6
v -0.7 0.1 -0.6
v -0.7 0.1 -0.7
v -0.6 0 0.6
v -0.6 0 0.5
v -0.6 0 -0.5
v -0.6 0 -0.6
v -0.6 0.1 0.6
v -0.6 0.1 0.5
v -0.6 0.1 -0.5
v -0.6 0.1 -0.6
v -0.5 0 0.5
v -0.5 0 0.4
v -0.5 0 -0.4
v -0.5 0 -0.5
v -0.5 0.1 0.5
v -0.5 0.1 0.4
v -0.5 0.1 -0.4
v -0.5 0.1 -0.5
v -0.4 0 0.4
v -0.4 0 0.3
v -0.4 0 -0.3
v -0.4 0 -0.4
v -0.4 0.1 0.4
v -0.4 0.1 0.3
v -0.4 0.1 -0.3
v -0.4 0.1 -0.4
v -0.3 0 0.3
v -0.3 0 0.2
v -0.3 0 -0.2
v -0.3 0 -0.3
v -0.3 0.1 0.3
v -0.3 0.1 0.2
v -0.3 0.1 -0.2
v -0.3 0.1 -0.3
v -0.2 0 0.2
v -0.2 0 0.1
v -0.2 0 -0.1
v -0.2 0 -0.2
v -0.2 0.1 0.2
v -0.2 0.1 0.1
v -0.2 0.1 -0.1
v -0.2 0.1 -0.2
v -0.1 0 0.1
v -0.1 0 -0.1
v -0.1 0.1 0.1
v -0.1 0.1 -0.1
v 0.1 0 0.2
v 0.1 0 0.1
v 0.1 0 -0.1
v 0.1 0 -0.2
v 0.1 0.1 0.2
v 0.1 0.1 0.1
v 0.1 0.1 -0.1
v 0.1 0.1 -0.2
v 0.2 0 0.3
v 0.2 0 0.2
v 0.2 0 -0.2
v 0.2 0 -0.3
v 0.2 0.1 0.3
v 0.2 0.1 0.2
v 0.2 0.1 -0.2
v 0.2 0.1 -0.3
v 0.3 0 0.4
v 0.3 0 0.3
v 0.3 0 -0.3
v 0.3 0 -0.4
v 0.3 0.1 0.4
v 0.3 0.1 0.3
v 0.3 0.1 -0.3
v 0.3 0.1 -0.4
v 0.4 0 0.5
v 0.4 0 0.4
v 0.4 0 -0.4
v 0.4 0 -0.5
v 0.4 0.1 0.5
v 0.4 0.1 0.4
v 0.4 0.1 -0.4
v 0.4 0.1 -0.5
v 0.5 0 0.6
v 0.5 0 0.5
v 0.5 0 -0.5
v 0.5 0 -0.6
v 0.5 0.1 0.6
v 0.5 0.1 0.5
v 0.5 0.1 -0.5
v 0.5 0.1 -0.6
v 0.6 0 0.7
v 0.6 0 0.6
v 0.6 0 -0.6
v 0.6 0 -0.7
v 0.6 0.1 0.7
v 0.6 0.1 0.6
v 0.6 0.1 -0.6
v 0.6 0.1 -0.7
v 1 0 1
v 1 0 -1
v 1 0.1 1
v 1 0.1 -1
v -1 0 1
v -1 0.1 1
v 1 0 1
v 1 0.1 1
v -0.7 0 0.6
v -0.7 0.1 0.6
v -0.6 0 0.6
v -0.6 0.1 0.6
v 0.6 0 0.6
v 0.6 0.1 0.6
v 0.7 0 0.6
v 0.7 0.1 0.6
v -0.6 0 0.5
v -0.6 0.1 0.5
v -0.5 0 0.5
v -0.5 0.1 0.5
v 0.5 0 0.5
v 0.5 0.1 0.5
v 0.6 0 0.5
v 0.6 0.1 0.5
v -0.5 0 0.4
v -0.5 0.1 0.4
v -0.4 0 0.4
v -0.4 0.1 0.4
v 0.4 0 0.4
v 0.4 0.1 0.4
v 0.5 0 0.4
v 0.5 0.1 0.4
v -0.4 0 0.3
v -0.4 0.1 0.3
v -0.3 0 0.3
v -0.3 0.1 0.3
v 0.3 0 0.3
v 0.3 0.1 0.3
v 0.4 0 0.3
v 0.4 0.1 0.3
v -0.3 0 0.2
v -0.3 0.1 0.2
v -0.2 0 0.2
v -0.2 0.1 0.2
v 0.2 0 0.2
v 0.2 0.1 0.2
v 0.3 0 0.2
v 0.3 0.1 0.2
v -0.2 0 0.1
v -0.2 0.1 0.1
v -0.1 0 0.1
v -0.1 0.1 0.1
v 0.1 0 0.1
v 0.1 0.1 0.1
v 0.2 0 0.1
v 0.2 0.1 0.1
v -0.1 0 -0.1
v -0.1 0.1 -0.1
v 0.1 0 -0.1
v 0.1 0.1 -0.1
v -0.2 0 -0.2
v -0.2 0.1 -0.2
v -0.1 0 -0.2
v -0.1 0.1 -0.2
v 0.1 0 -0.2
v 0.1 0.1 -0.2
v 0.2 0 -0.2
v 0.2 0.1 -0.2
v -0.3 0 -0.3
v -0.3 0.1 -0.3
v -0.2 0 -0.3
v -0.2 0.1 -0.3
v 0.2 0 -0.3
v 0.2 0.1 -0.3
v 0.3 0 -0.3
v 0.3 0.1 -0.3
v -0.4 0 -0.4
v -0.4 0.1 -0.4
v -0.3 0 -0.4
v -0.3 0.1 -0.4
v 0.3 0 -0.4
v 0.3 0.1 -0.4
v 0.4 0 -0.4
v 0.4 0.1 -0.4
v -0.5 0 -0.5
v -0.5 0.1 -0.5
v -0.4 0 -0.5
v -0.4 0.1 -0.5
v 0.4 0 -0.5
v 0.4 0.1 -0.5
v 0.5 0 -0.5
v 0.5 0.1 -0.5
v -0.6 0 -0.6
v -0.6 0.1 -0.6
v -0.5 0 -0.6
v -0.5 0.1 -0.6
v 0.5 0 -0.6
v 0.5 0.1 -0.6
v 0.6 0 -0.6
v 0.6 0.1 -0.6
v -0.7 0 -0.7
v -0.7 0.1 -0.7
v -0.6 0 -0.7
v -0.6 0.1 -0.7
v 0.6 0 -0.7
v 0.6 0.1 -0.7
v 0.7 0 -0.7
v 0.7 0.1 -0.7
v -0.7 0 0.7
v -0.7 0.1 0.7
v -0.6 0 0.7
v -0.6 0.1 0.7
v 0.6 0 0.7
v 0.6 0.1 0.7
v 0.7 0 0.7
v 0.7 0.1 0.7
v -0.6 0 0.6
v -0.6 0.1 0.6
v -0.5 0 0.6
v -0.5 0.1 0.6
v 0.5 0 0.6
v 0.5 0.1 0.6
v 0.6 0 0.6
v 0.6 0.1 0.6
v -0.5 0 0.5
v -0.5 0.1 0.5
v -0.4 0 0.5
v -0.4 0.1 0.5
v 0.4 0 0.5
v 0.4 0.1 0.5
v 0.5 0 0.5
v 0.5 0.1 0.5
v -0.4 0 0.4
v -0.4 0.1 0.4
v -0.3 0 0.4
v -0.3 0.1 0.4
v 0.3 0 0.4
v 0.3 0.1 0.4
v 0.4 0 0.4
v 0.4 0.1 0.4
v -0.3 0 0.3
v -0.3 0.1 0.3
v -0.2 0 0.3
v -0.2 0.1 0.3
v 0.2 0 0.3
v 0.2 0.1 0.3
v 0.3 0 0.3
v 0.3 0.1 0.3
v -0.2 0 0.2
v -0.2 0.1 0.2
v -0.1 0 0.2
v -0.1 0.1 0.2
v 0.1 0 0.2
v 0.1 0.1 0.2
v 0.2 0 0.2
v 0.2 0.1 0.2
v -0.1 0 0.1
v -0.1 0.1 0.1
v 0.1 0 0.1
v 0.1 0.1 0.1
v -0.2 0 -0.1
v -0.2 0.1 -0.1
v -0.1 0 -0.1
v -0.1 0.1 -0.1
v 0.1 0 -0.1
v 0.1 0.1 -0.1
v 0.2 0 -0.1
v 0.2 0.1 -0.1
v -0.3 0 -0.2
v -0.3 0.1 -0.2
v -0.2 0 -0.2
v -0.2 0.1 -0.2
v 0.2 0 -0.2
v 0.2 0.1 -0.2
v 0.3 0 -0.2
v 0.3 0.1 -0.2
v -0.4 0 -0.3
v -0.4 0.1 -0.3
v -0.3 0 -0.3
v -0.3 0.1 -0.3
v 0.3 0 -0.3
v 0.3 0.1 -0.3
v 0.4 0 -0.3
v 0.4 0.1 -0.3
v -0.5 0 -0.4
v -0.5 0.1 -0.4
v -0.4 0 -0.4
v -0.4 0.1 -0.4
v 0.4 0 -0.4
v 0.4 0.1 -0.4
v 0.5 0 -0.4
v 0.5 0.1 -0.4
v -0.6 0 -0.5
v -0.6 0.1 -0.5
v -0.5 0 -0.5
v -0.5 0.1 -0.5
v 0.5 0 -0.5
v 0.5 0.1 -0.5
v 0.6 0 -0.5
v 0.6 0.1 -0.5
v -0.7 0 -0.6
v -0.7 0.1 -0.6
v -0.6 0 -0.6
v -0.6 0.1 -0.6
v 0.6 0 -0.6
v 0.6 0.1 -0.6
v 0.7 0 -0.6
v 0.7 0.1 -0.6
v -1 0 -1
v -1 0.1 -1
v 1 0 -1
v 1 0.1 -1
v -1 0 1
v 1 0 1
v -0.9 0 0.9
v 0.9 0 0.9
v -0.7 0 0.7
v -0.6 0 0.7
v -0.2 0 0.7
v 0.2 0 0.7
v 0.6 0 0.7
v 0.7 0 0.7
v -0.7 0 0.6
v -0.6 0 0.6
v -0.5 0 0.6
v 0.5 0 0.6
v 0.6 0 0.6
v 0.7 0 0.6
v -0.6 0 0.5
v -0.5 0 0.5
v -0.4 0 0.5
v 0.4 0 0.5
v 0.5 0 0.5
v 0.6 0 0.5
v -0.5 0 0.4
v -0.4 0 0.4
v -0.3 0 0.4
v 0.3 0 0.4
v 0.4 0 0.4
v 0.5 0 0.4
v -0.4 0 0.3
v -0.3 0 0.3
v -0.2 0 0.3
v 0.2 0 0.3
v 0.3 0 0.3
v 0.4 0 0.3
v -0.7 0 0.2
v -0.3 0 0.2
v -0.2 0 0.2
v -0.1 0 0.2
v 0.1 0 0.2
v 0.2 0 0.2
v 0.3 0 0.2
v 0.7 0 0.2
v -0.2 0 0.1
v -0.1 0 0.1
v 0.1 0 0.1
v 0.2 0 0.1
v -0.2 0 -0.1
v -0.1 0 -0.1
v 0.1 0 -0.1
v 0.2 0 -0.1
v -0.7 0 -0.2
v -0.3 0 -0.2
v -0.2 0 -0.2
v -0.1 0 -0.2
v 0.1 0 -0.2
v 0.2 0 -0.2
v 0.3 0 -0.2
v 0.7 0 -0.2
v -0.4 0 -0.3
v -0.3 0 -0.3
v -0.2 0 -0.3
v 0.2 0 -0.3
v 0.3 0 -0.3
v 0.4 0 -0.3
v -0.5 0 -0.4
v -0.4 0 -0.4
v -0.3 0 -0.4
v 0.3 0 -0.4
v 0.4 0 -0.4
v 0.5 0 -0.4
v -0.6 0 -0.5
v -0.5 0 -0.5
v -0.4 0 -0.5
v 0.4 0 -0.5
v 0.5 0 -0.5
v 0.6 0 -0.5
v -0.7 0 -0.6
v -0.6 0 -0.6
v -0.5 0 -0.6
v 0.5 0 -0.6
v 0.6 0 -0.6
v 0.7 0 -0.6
v -0.7 0 -0.7
v -0.6 0 -0.7
v -0.2 0 -0.7
v 0.2 0 -0.7
v 0.6 0 -0.7
v 0.7 0 -0.7
v -0.9 0 -0.9
v 0.9 0 -0.9
v -1 0 -1
v 1 0 -1
v -1 0.1 1
v 1 0.1 1
v -0.9 0.1 0.9
v 0.9 0.1 0.9
v -0.7 0.1 0.7
v -0.6 0.1 0.7
v -0.2 0.1 0.7
v 0.2 0.1 0.7
v 0.6 0.1 0.7
v 0.7 0.1 0.7
v -0.7 0.1 0.6
v -0.6 0.1 0.6
v -0.5 0.1 0.6
v 0.5 0.1 0.6
v 0.6 0.1 0.6
v 0.7 0.1 0.6
v -0.6 0.1 0.5
v -0.5 0.1 0.5
v -0.4 0.1 0.5
v 0.4 0.1 0.5
v 0.5 0.1 0.5
v 0.6 0.1 0.5
v -0.5 0.1 0.4
v -0.4 0.1 0.4
v -0.3 0.1 0.4
v 0.3 0.1 0.4
v 0.4 0.1 0.4
v 0.5 0.1 0.4
v -0.4 0.1 0.3
v -0.3 0.1 0.3
v -0.2 0.1 0.3
v 0.2 0.1 0.3
v 0.3 0.1 0.3
v 0.4 0.1 0.3
v -0.7 0.1 0.2
v -0.3 0.1 0.2
v -0.2 0.1 0.2
v -0.1 0.1 0.2
v 0.1 0.1 0.2
v 0.2 0.1 0.2
v 0.3 0.1 0.2
v 0.7 0.1 0.2
v -0.2 0.1 0.1
v -0.1 0.1 0.1
v 0.1 0.1 0.1
v 0.2 0.1 0.1
v -0.2 0.1 -0.1
v -0.1 0.1 -0.1
v 0.1 0.1 -0.1
v 0.2 0.1 -0.1
v -0.7 0.1 -0.2
v -0.3 0.1 -0.2
v -0.2 0.1 -0.2
v -0.1 0.1 -0.2
v 0.1 0.1 -0.2
v 0.2 0.1 -0.2
v 0.3 0.1 -0.2
v 0.7 0.1 -0.2
v -0.4 0.1 -0.3
v -0.3 0.1 -0.3
v -0.2 0.1 -0.3
v 0.2 0.1 -0.3
v 0.3 0.1 -0.3
v 0.4 0.1 -0.3
v -0.5 0.1 -0.4
v -0.4 0.1 -0.4
v -0.3 0.1 -0.4
v 0.3 0.1 -0.4
v 0.4 0.1 -0.4
v 0.5 0.1 -0.4
v -0.6 0.1 -0.5
v -0.5 0.1 -0.5
v -0.4 0.1 -0.5
v 0.4 0.1 -0.5
v 0.5 0.1 -0.5
v 0.6 0.1 -0.5
v -0.7 0.1 -0.6
v -0.6 0.1 -0.6
v -0.5 0.1 -0.6
v 0.5 0.1 -0.6
v 0.6 0.1 -0.6
v 0.7 0.1 -0.6
v -0.7 0.1 -0.7
v -0.6 0.1 -0.7
v -0.2 0.1 -0.7
v 0.2 0.1 -0.7
v 0.6 0.1 -0.7
v 0.7 0.1 -0.7
v -0.9 0.1 -0.9
v 0.9 0.1 -0.9
v -1 0.1 -1
v 1 0.1 -1

# faces
f 3/3/1 2/3/1 1/3/1
f 4/3/1 2/3/1 3/3/1
f 9/2/1 6/2/1 5/2/1
f 10/2/1 6/2/1 9/2/1
f 11/2/1 8/2/1 7/2/1
f 12/2/1 8/2/1 11/2/1
f 17/2/1 14/2/1 13/2/1
f 18/2/1 14/2/1 17/2/1
f 19/2/1 16/2/1 15/2/1
f 20/2/1 16/2/1 19/2/1
f 25/2/1 22/2/1 21/2/1
f 26/2/1 22/2/1 25/2/1
f 27/2/1 24/2/1 23/2/1
f 28/2/1 24/2/1 27/2/1
f 33/2/1 30/2/1 29/2/1
f 34/2/1 30/2/1 33/2/1
f 35/2/1 32/2/1 31/2/1
f 36/2/1 32/2/1 35/2/1
f 41/1/1 38/1/1 37/1/1
f 42/1/1 38/1/1 41/1/1
f 43/1/1 40/1/1 39/1/1
f 44/1/1 40/1/1 43/1/1
f 49/1/1 46/1/1 45/1/1
f 50/1/1 46/1/1 49/1/1
f 51/1/1 48/1/1 47/1/1
f 52/1/1 48/1/1 51/1/1
f 55/1/1 54/1/1 53/1/1
f 56/1/1 54/1/1 55/1/1
f 61/1/1 58/1/1 57/1/1
f 62/1/1 58/1/1 61/1/1
f 63/1/1 60/1/1 59/1/1
f 64/1/1 60/1/1 63/1/1
f 69/2/1 66/2/1 65/2/1
f 70/2/1 66/2/1 69/2/1
f 71/2/1 68/2/1 67/2/1
f 72/2/1 68/2/1 71/2/1
f 77/2/1 74/2/1 73/2/1
f 78/2/1 74/2/1 77/2/1
f 79/2/1 76/2/1 75/2/1
f 80/2/1 76/2/1 79/2/1
f 85/2/1 82/2/1 81/2/1
f 86/2/1 82/2/1 85/2/1
f 87/2/1 84/2/1 83/2/1
f 88/2/1 84/2/1 87/2/1
f 93/2/1 90/2/1 89/2/1
f 94/2/1 90/2/1 93/2/1
f 95/2/1 92/2/1 91/2/1
f 96/2/1 92/2/1 95/2/1
f 101/1/1 98/1/1 97/1/1
f 102/1/1 98/1/1 101/1/1
f 103/1/1 100/1/1 99/1/1
f 104/1/1 100/1/1 103/1/1
f 105/1/2 106/1/2 109/1/2
f 109/1/2 106/1/2 110/1/2
f 107/1/2 108/1/2 111/1/2
f 111/1/2 108/1/2 112/1/2
f 113/2/2 114/2/2 117/2/2
f 117/2/2 114/2/2 118/2/2
f 115/2/2 116/2/2 119/2/2
f 119/2/2 116/2/2 120/2/2
f 121/2/2 122/2/2 125/2/2
f 125/2/2 122/2/2 126/2/2
f 123/2/2 124/2/2 127/2/2
f 127/2/2 124/2/2 128/2/2
f 129/2/2 130/2/2 133/2/2
f 133/2/2 130/2/2 134/2/2
f 131/2/2 132/2/2 135/2/2
f 135/2/2 132/2/2 136/2/2
f 137/2/2 138/2/2 141/2/2
f 141/2/2 138/2/2 142/2/2
f 139/2/2 140/2/2 143/2/2
f 143/2/2 140/2/2 144/2/2
f 145/1/2 146/1/2 149/1/2
f 149/1/2 146/1/2 150/1/2
f 147/1/2 148/1/2 151/1/2
f 151/1/2 148/1/2 152/1/2
f 153/1/2 154/1/2 155/1/2
f 155/1/2 154/1/2 156/1/2
f 157/1/2 158/1/2 161/1/2
f 161/1/2 158/1/2 162/1/2
f 159/1/2 160/1/2 163/1/2
f 163/1/2 160/1/2 164/1/2
f 165/1/2 166/1/2 169/1/2
f 169/1/2 166/1/2 170/1/2
f 167/1/2 168/1/2 171/1/2
f 171/1/2 168/1/2 172/1/2
f 173/2/2 174/2/2 177/2/2
f 177/2/2 174/2/2 178/2/2
f 175/2/2 176/2/2 179/2/2
f 179/2/2 176/2/2 180/2/2
f 181/2/2 182/2/2 185/2/2
f 185/2/2 182/2/2 186/2/2
f 183/2/2 184/2/2 187/2/2
f 187/2/2 184/2/2 188/2/2
f 189/2/2 190/2/2 193/2/2
f 193/2/2 190/2/2 194/2/2
f 191/2/2 192/2/2 195/2/2
f 195/2/2 192/2/2 196/2/2
f 197/2/2 198/2/2 201/2/2
f 201/2/2 198/2/2 202/2/2
f 199/2/2 200/2/2 203/2/2
f 203/2/2 200/2/2 204/2/2
f 205/3/2 206/3/2 207/3/2
f 207/3/2 206/3/2 208/3/2
f 211/3/3 210/3/3 209/3/3
f 212/3/3 210/3/3 211/3/3
f 215/2/3 214/2/3 213/2/3
f 216/2/3 214/2/3 215/2/3
f 219/2/3 218/2/3 217/2/3
f 220/2/3 218/2/3 219/2/3
f 223/2/3 222/2/3 221/2/3
f 224/2/3 222/2/3 223/2/3
f 227/2/3 226/2/3 225/2/3
f 228/2/3 226/2/3 227/2/3
f 231/2/3 230/2/3 229/2/3
f 232/2/3 230/2/3 231/2/3
f 235/2/3 234/2/3 233/2/3
f 236/2/3 234/2/3 235/2/3
f 239/2/3 238/2/3 237/2/3
f 240/2/3 238/2/3 239/2/3
f 243/2/3 242/2/3 241/2/3
f 244/2/3 242/2/3 243/2/3
f 247/1/3 246/1/3 245/1/3
f 248/1/3 246/1/3 247/1/3
f 251/1/3 250/1/3 249/1/3
f 252/1/3 250/1/3 251/1/3
f 255/1/3 254/1/3 253/1/3
f 256/1/3 254/1/3 255/1/3
f 259/1/3 258/1/3 257/1/3
f 260/1/3 258/1/3 259/1/3
f 263/1/3 262/1/3 261/1/3
f 264/1/3 262/1/3 263/1/3
f 267/1/3 266/1/3 265/1/3
f 268/1/3 266/1/3 267/1/3
f 271/1/3 270/1/3 269/1/3
f 272/1/3 270/1/3 271/1/3
f 275/2/3 274/2/3 273/2/3
f 276/2/3 274/2/3 275/2/3
f 279/2/3 278/2/3 277/2/3
f 280/2/3 278/2/3 279/2/3
f 283/2/3 282/2/3 281/2/3
f 284/2/3 282/2/3 283/2/3
f 287/2/3 286/2/3 285/2/3
f 288/2/3 286/2/3 287/2/3
f 291/2/3 290/2/3 289/2/3
f 292/2/3 290/2/3 291/2/3
f 295/2/3 294/2/3 293/2/3
f 296/2/3 294/2/3 295/2/3
f 299/2/3 298/2/3 297/2/3
f 300/2/3 298/2/3 299/2/3
f 303/2/3 302/2/3 301/2/3
f 304/2/3 302/2/3 303/2/3
f 307/1/3 306/1/3 305/1/3
f 308/1/3 306/1/3 307/1/3
f 311/1/3 310/1/3 309/1/3
f 312/1/3 310/1/3 311/1/3
f 313/1/4 314/1/4 315/1/4
f 315/1/4 314/1/4 316/1/4
f 317/1/4 318/1/4 319/1/4
f 319/1/4 318/1/4 320/1/4
f 321/2/4 322/2/4 323/2/4
f 323/2/4 322/2/4 324/2/4
f 325/2/4 326/2/4 327/2/4
f 327/2/4 326/2/4 328/2/4
f 329/2/4 330/2/4 331/2/4
f 331/2/4 330/2/4 332/2/4
f 333/2/4 334/2/4 335/2/4
f 335/2/4 334/2/4 336/2/4
f 337/2/4 338/2/4 339/2/4
f 339/2/4 338/2/4 340/2/4
f 341/2/4 342/2/4 343/2/4
f 343/2/4 342/2/4 344/2/4
f 345/2/4 346/2/4 347/2/4
f 347/2/4 346/2/4 348/2/4
f 349/2/4 350/2/4 351/2/4
f 351/2/4 350/2/4 352/2/4
f 353/1/4 354/1/4 355/1/4
f 355/1/4 354/1/4 356/1/4
f 357/1/4 358/1/4 359/1/4
f 359/1/4 358/1/4 360/1/4
f 361/1/4 362/1/4 363/1/4
f 363/1/4 362/1/4 364/1/4
f 365/1/4 366/1/4 367/1/4
f 367/1/4 366/1/4 368/1/4
f 369/1/4 370/1/4 371/1/4
f 371/1/4 370/1/4 372/1/4
f 373/1/4 374/1/4 375/1/4
f 375/1/4 374/1/4 376/1/4
f 377/1/4 378/1/4 379/1/4
f 379/1/4 378/1/4 380/1/4
f 381/2/4 382/2/4 383/2/4
f 383/2/4 382/2/4 384/2/4
f 385/2/4 386/2/4 387/2/4
f 387/2/4 386/2/4 388/2/4
f 389/2/4 390/2/4 391/2/4
f 391/2/4 390/2/4 392/2/4
f 393/2/4 394/2/4 395/2/4
f 395/2/4 394/2/4 396/2/4
f 397/2/4 398/2/4 399/2/4
f 399/2/4 398/2/4 400/2/4
f 401/2/4 402/2/4 403/2/4
f 403/2/4 402/2/4 404/2/4
f 405/2/4 406/2/4 407/2/4
f 407/2/4 406/2/4 408/2/4
f 409/2/4 410/2/4 411/2/4
f 411/2/4 410/2/4 412/2/4
f 413/3/4 414/3/4 415/3/4
f 415/3/4 414/3/4 416/3/4
f 419/3/5 418/3/5 417/3/5
f 420/3/5 418/3/5 419/3/5
f 421/1/5 420/1/5 419/1/5
f 422/1/5 420/1/5 421/1/5
f 423/1/5 420/1/5 422/1/5
f 424/1/5 420/1/5 423/1/5
f 425/1/5 420/1/5 424/1/5
f 426/1/5 420/1/5 425/1/5
f 427/1/5 421/1/5 419/1/5
f 428/2/5 423/2/5 422/2/5
f 429/2/5 423/2/5 428/2/5
f 430/2/5 425/2/5 424/2/5
f 431/2/5 425/2/5 430/2/5
f 432/1/5 420/1/5 426/1/5
f 433/2/5 428/2/5 427/2/5
f 434/2/5 423/2/5 429/2/5
f 435/2/5 423/2/5 434/2/5
f 436/2/5 430/2/5 424/2/5
f 437/2/5 430/2/5 436/2/5
f 438/2/5 432/2/5 431/2/5
f 439/2/5 434/2/5 433/2/5
f 440/2/5 423/2/5 435/2/5
f 441/2/5 423/2/5 440/2/5
f 442/2/5 436/2/5 424/2/5
f 443/2/5 436/2/5 442/2/5
f 444/2/5 438/2/5 437/2/5
f 445/2/5 440/2/5 439/2/5
f 446/2/5 423/2/5 441/2/5
f 447/1/5 424/1/5 423/1/5
f 447/2/5 423/2/5 446/2/5
f 448/2/5 442/2/5 424/2/5
f 448/1/5 424/1/5 447/1/5
f 449/2/5 442/2/5 448/2/5
f 450/2/5 444/2/5 443/2/5
f 451/2/5 433/2/5 427/2/5
f 451/1/5 427/1/5 419/1/5
f 451/2/5 446/2/5 445/2/5
f 451/2/5 439/2/5 433/2/5
f 451/2/5 445/2/5 439/2/5
f 452/2/5 446/2/5 451/2/5
f 453/1/5 448/1/5 447/1/5
f 454/1/5 448/1/5 453/1/5
f 455/1/5 448/1/5 454/1/5
f 456/1/5 448/1/5 455/1/5
f 457/2/5 450/2/5 449/2/5
f 458/2/5 444/2/5 450/2/5
f 458/1/5 420/1/5 432/1/5
f 458/2/5 450/2/5 457/2/5
f 458/2/5 432/2/5 438/2/5
f 458/2/5 438/2/5 444/2/5
f 459/1/5 452/1/5 451/1/5
f 459/1/5 453/1/5 452/1/5
f 460/1/5 455/1/5 454/1/5
f 461/1/5 455/1/5 460/1/5
f 462/1/5 457/1/5 456/1/5
f 462/1/5 458/1/5 457/1/5
f 463/1/5 460/1/5 459/1/5
f 463/1/5 459/1/5 451/1/5
f 464/1/5 460/1/5 463/1/5
f 465/1/5 462/1/5 461/1/5
f 466/1/5 458/1/5 462/1/5
f 466/1/5 462/1/5 465/1/5
f 467/1/5 451/1/5 419/1/5
f 467/1/5 463/1/5 451/1/5
f 468/1/5 463/1/5 467/1/5
f 469/1/5 463/1/5 468/1/5
f 470/1/5 465/1/5 464/1/5
f 471/1/5 465/1/5 470/1/5
f 472/1/5 458/1/5 466/1/5
f 473/1/5 458/1/5 472/1/5
f 474/1/5 420/1/5 458/1/5
f 474/1/5 458/1/5 473/1/5
f 475/2/5 468/2/5 467/2/5
f 476/2/5 468/2/5 475/2/5
f 477/1/5 471/1/5 470/1/5
f 477/1/5 472/1/5 471/1/5
f 477/1/5 470/1/5 469/1/5
f 478/1/5 472/1/5 477/1/5
f 479/2/5 474/2/5 473/2/5
f 480/2/5 474/2/5 479/2/5
f 481/2/5 475/2/5 467/2/5
f 482/2/5 475/2/5 481/2/5
f 483/2/5 477/2/5 476/2/5
f 484/2/5 479/2/5 478/2/5
f 485/2/5 474/2/5 480/2/5
f 486/2/5 474/2/5 485/2/5
f 487/2/5 481/2/5 467/2/5
f 488/2/5 481/2/5 487/2/5
f 489/2/5 483/2/5 482/2/5
f 490/2/5 485/2/5 484/2/5
f 491/2/5 474/2/5 486/2/5
f 492/2/5 474/2/5 491/2/5
f 493/1/5 467/1/5 419/1/5
f 493/2/5 487/2/5 467/2/5
f 494/2/5 487/2/5 493/2/5
f 495/2/5 489/2/5 488/2/5
f 496/2/5 491/2/5 490/2/5
f 497/2/5 474/2/5 492/2/5
f 498/1/5 420/1/5 474/1/5
f 498/2/5 474/2/5 497/2/5
f 499/1/5 493/1/5 419/1/5
f 500/2/5 495/2/5 494/2/5
f 501/1/5 478/1/5 477/1/5
f 501/2/5 477/2/5 483/2/5
f 501/2/5 495/2/5 500/2/5
f 501/2/5 483/2/5 489/2/5
f 501/2/5 489/2/5 495/2/5
f 502/2/5 497/2/5 496/2/5
f 502/1/5 478/1/5 501/1/5
f 502/2/5 484/2/5 478/2/5
f 502/2/5 496/2/5 490/2/5
f 502/2/5 490/2/5 484/2/5
f 503/2/5 497/2/5 502/2/5
f 504/1/5 420/1/5 498/1/5
f 505/3/5 419/3/5 417/3/5
f 505/1/5 504/1/5 503/1/5
f 505/1/5 501/1/5 500/1/5
f 505/1/5 500/1/5 499/1/5
f 505/1/5 502/1/5 501/1/5
f 505/1/5 499/1/5 419/1/5
f 505/1/5 503/1/5 502/1/5
f 506/1/5 420/1/5 504/1/5
f 506/1/5 504/1/5 505/1/5
f 506/3/5 418/3/5 420/3/5
f 507/3/5 505/3/5 417/3/5
f 507/3/5 506/3/5 505/3/5
f 508/3/5 418/3/5 506/3/5
f 508/3/5 506/3/5 507/3/5
f 509/3/6 510/3/6 511/3/6
f 511/3/6 510/3/6 512/3/6
f 511/1/6 512/1/6 513/1/6
f 513/1/6 512/1/6 514/1/6
f 514/1/6 512/1/6 515/1/6
f 515/1/6 512/1/6 516/1/6
f 516/1/6 512/1/6 517/1/6
f 517/1/6 512/1/6 518/1/6
f 511/1/6 513/1/6 519/1/6
f 514/2/6 515/2/6 520/2/6
f 520/2/6 515/2/6 521/2/6
f 516/2/6 517/2/6 522/2/6
f 522/2/6 517/2/6 523/2/6
f 518/1/6 512/1/6 524/1/6
f 519/2/6 520/2/6 525/2/6
f 521/2/6 515/2/6 526/2/6
f 526/2/6 515/2/6 527/2/6
f 516/2/6 522/2/6 528/2/6
f 528/2/6 522/2/6 529/2/6
f 523/2/6 524/2/6 530/2/6
f 525/2/6 526/2/6 531/2/6
f 527/2/6 515/2/6 532/2/6
f 532/2/6 515/2/6 533/2/6
f 516/2/6 528/2/6 534/2/6
f 534/2/6 528/2/6 535/2/6
f 529/2/6 530/2/6 536/2/6
f 531/2/6 532/2/6 537/2/6
f 533/2/6 515/2/6 538/2/6
f 515/1/6 516/1/6 539/1/6
f 538/2/6 515/2/6 539/2/6
f 516/2/6 534/2/6 540/2/6
f 539/1/6 516/1/6 540/1/6
f 540/2/6 534/2/6 541/2/6
f 535/2/6 536/2/6 542/2/6
f 519/2/6 525/2/6 543/2/6
f 511/1/6 519/1/6 543/1/6
f 537/2/6 538/2/6 543/2/6
f 525/2/6 531/2/6 543/2/6
f 531/2/6 537/2/6 543/2/6
f 543/2/6 538/2/6 544/2/6
f 539/1/6 540/1/6 545/1/6
f 545/1/6 540/1/6 546/1/6
f 546/1/6 540/1/6 547/1/6
f 547/1/6 540/1/6 548/1/6
f 541/2/6 542/2/6 549/2/6
f 542/2/6 536/2/6 550/2/6
f 524/1/6 512/1/6 550/1/6
f 549/2/6 542/2/6 550/2/6
f 530/2/6 524/2/6 550/2/6
f 536/2/6 530/2/6 550/2/6
f 543/1/6 544/1/6 551/1/6
f 544/1/6 545/1/6 551/1/6
f 546/1/6 547/1/6 552/1/6
f 552/1/6 547/1/6 553/1/6
f 548/1/6 549/1/6 554/1/6
f 549/1/6 550/1/6 554/1/6
f 551/1/6 552/1/6 555/1/6
f 543/1/6 551/1/6 555/1/6
f 555/1/6 552/1/6 556/1/6
f 553/1/6 554/1/6 557/1/6
f 554/1/6 550/1/6 558/1/6
f 557/1/6 554/1/6 558/1/6
f 511/1/6 543/1/6 559/1/6
f 543/1/6 555/1/6 559/1/6
f 559/1/6 555/1/6 560/1/6
f 560/1/6 555/1/6 561/1/6
f 556/1/6 557/1/6 562/1/6
f 562/1/6 557/1/6 563/1/6
f 558/1/6 550/1/6 564/1/6
f 564/1/6 550/1/6 565/1/6
f 550/1/6 512/1/6 566/1/6
f 565/1/6 550/1/6 566/1/6
f 559/2/6 560/2/6 567/2/6
f 567/2/6 560/2/6 568/2/6
f 562/1/6 563/1/6 569/1/6
f 563/1/6 564/1/6 569/1/6
f 561/1/6 562/1/6 569/1/6
f 569/1/6 564/1/6 570/1/6
f 565/2/6 566/2/6 571/2/6
f 571/2/6 566/2/6 572/2/6
f 559/2/6 567/2/6 573/2/6
f 573/2/6 567/2/6 574/2/6
f 568/2/6 569/2/6 575/2/6
f 570/2/6 571/2/6 576/2/6
f 572/2/6 566/2/6 577/2/6
f 577/2/6 566/2/6 578/2/6
f 559/2/6 573/2/6 579/2/6
f 579/2/6 573/2/6 580/2/6
f 574/2/6 575/2/6 581/2/6
f 576/2/6 577/2/6 582/2/6
f 578/2/6 566/2/6 583/2/6
f 583/2/6 566/2/6 584/2/6
f 511/1/6 559/1/6 585/1/6
f 559/2/6 579/2/6 585/2/6
f 585/2/6 579/2/6 586/2/6
f 580/2/6 581/2/6 587/2/6
f 582/2/6 583/2/6 588/2/6
f 584/2/6 566/2/6 589/2/6
f 566/1/6 512/1/6 590/1/6
f 589/2/6 566/2/6 590/2/6
f 511/1/6 585/1/6 591/1/6
f 586/2/6 587/2/6 592/2/6
f 569/1/6 570/1/6 593/1/6
f 575/2/6 569/2/6 593/2/6
f 592/2/6 587/2/6 593/2/6
f 581/2/6 575/2/6 593/2/6
f 587/2/6 581/2/6 593/2/6
f 588/2/6 589/2/6 594/2/6
f 593/1/6 570/1/6 594/1/6
f 570/2/6 576/2/6 594/2/6
f 582/2/6 588/2/6 594/2/6
f 576/2/6 582/2/6 594/2/6
f 594/2/6 589/2/6 595/2/6
f 590/1/6 512/1/6 596/1/6
f 509/3/6 511/3/6 597/3/6
f 595/1/6 596/1/6 597/1/6
f 592/1/6 593/1/6 597/1/6
f 591/1/6 592/1/6 597/1/6
f 593/1/6 594/1/6 597/1/6
f 511/1/6 591/1/6 597/1/6
f 594/1/6 595/1/6 597/1/6
f 596/1/6 512/1/6 598/1/6
f 597/1/6 596/1/6 598/1/6
f 512/3/6 510/3/6 598/3/6
f 509/3/6 597/3/6 599/3/6
f 597/3/6 598/3/6 599/3/6
f 598/3/6 510/3/6 600/3/6
f 599/3/6 598/3/6 600/3/6
