# MagicaVoxel @ Ephtracy

# group
o 

# material
mtllib wall2.mtl
usemtl palette

# normals
vn -1 0 0
vn 1 0 0
vn 0 0 1
vn 0 0 -1
vn 0 -1 0
vn 0 1 0

# texcoords
vt 0.396484 0.5
vt 0.400391 0.5
vt 0.404297 0.5

# verts
v -1 -5 0.1
v -1 -5 -0.3
v -1 0 0.1
v -1 0 -0.3
v -1 0.2 0.1
v -1 0.2 -0.3
v -1 5 0.1
v -1 5 -0.3
v -0.7 4.4 0.2
v -0.7 4.4 0.1
v -0.7 4.7 0.2
v -0.7 4.7 0.1
v -0.6 0.6 0.2
v -0.6 0.6 0.1
v -0.6 0.9 0.2
v -0.6 0.9 0.1
v -0.3 1 0.2
v -0.3 1 0.1
v -0.3 1.3 0.2
v -0.3 1.3 0.1
v -0.1 2.8 0.1
v -0.1 2.8 0
v -0.1 3.1 0.1
v -0.1 3.1 0
v 0.2 0.6 0.2
v 0.2 0.6 0.1
v 0.2 0.9 0.2
v 0.2 0.9 0.1
v 0.3 3.4 0.1
v 0.3 3.4 0
v 0.3 3.7 0.1
v 0.3 3.7 0
v 0.7 2 0.1
v 0.7 2 0
v 0.7 2.3 0.1
v 0.7 2.3 0
v -0.6 2.8 0.1
v -0.6 2.8 0
v -0.6 3.1 0.1
v -0.6 3.1 0
v -0.3 3.4 0.1
v -0.3 3.4 0
v -0.3 3.7 0.1
v -0.3 3.7 0
v -0.2 4.4 0.2
v -0.2 4.4 0.1
v -0.2 4.7 0.2
v -0.2 4.7 0.1
v -0.1 0.6 0.2
v -0.1 0.6 0.1
v -0.1 0.9 0.2
v -0.1 0.9 0.1
v 0.2 2 0.1
v 0.2 2 0
v 0.2 2.3 0.1
v 0.2 2.3 0
v 0.3 1 0.2
v 0.3 1 0.1
v 0.3 1.3 0.2
v 0.3 1.3 0.1
v 0.8 0.6 0.2
v 0.8 0.6 0.1
v 0.8 0.9 0.2
v 0.8 0.9 0.1
v 1 -5 0.1
v 1 -5 -0.3
v 1 0 0.1
v 1 0 -0.3
v 1 0.2 0.1
v 1 0.2 -0.3
v 1 5 0.1
v 1 5 -0.3
v -0.7 4.4 0.2
v -0.7 4.7 0.2
v -0.6 0.6 0.2
v -0.6 0.9 0.2
v -0.3 1 0.2
v -0.3 1.3 0.2
v -0.2 4.4 0.2
v -0.2 4.7 0.2
v -0.1 0.6 0.2
v -0.1 0.9 0.2
v 0.2 0.6 0.2
v 0.2 0.9 0.2
v 0.3 1 0.2
v 0.3 1.3 0.2
v 0.8 0.6 0.2
v 0.8 0.9 0.2
v -1 -5 0.1
v -1 0 0.1
v -1 0.2 0.1
v -1 5 0.1
v -0.7 4.4 0.1
v -0.7 4.7 0.1
v -0.6 0.6 0.1
v -0.6 0.9 0.1
v -0.6 2.8 0.1
v -0.6 3.1 0.1
v -0.3 1 0.1
v -0.3 1.3 0.1
v -0.3 3.4 0.1
v -0.3 3.7 0.1
v -0.2 4.4 0.1
v -0.2 4.7 0.1
v -0.1 0.6 0.1
v -0.1 0.9 0.1
v -0.1 2.8 0.1
v -0.1 3.1 0.1
v 0.2 0.6 0.1
v 0.2 0.9 0.1
v 0.2 2 0.1
v 0.2 2.3 0.1
v 0.3 1 0.1
v 0.3 1.3 0.1
v 0.3 3.4 0.1
v 0.3 3.7 0.1
v 0.7 2 0.1
v 0.7 2.3 0.1
v 0.8 0.6 0.1
v 0.8 0.9 0.1
v 1 -5 0.1
v 1 0 0.1
v 1 0.2 0.1
v 1 5 0.1
v -0.6 2.8 0
v -0.6 3.1 0
v -0.3 3.4 0
v -0.3 3.7 0
v -0.1 2.8 0
v -0.1 3.1 0
v 0.2 2 0
v 0.2 2.3 0
v 0.3 3.4 0
v 0.3 3.7 0
v 0.7 2 0
v 0.7 2.3 0
v -1 -5 -0.3
v -1 0 -0.3
v -1 0.2 -0.3
v -1 5 -0.3
v 1 -5 -0.3
v 1 0 -0.3
v 1 0.2 -0.3
v 1 5 -0.3
v -1 -5 0.1
v 1 -5 0.1
v -1 -5 -0.3
v 1 -5 -0.3
v -0.6 0.6 0.2
v -0.1 0.6 0.2
v 0.2 0.6 0.2
v 0.8 0.6 0.2
v -0.6 0.6 0.1
v -0.1 0.6 0.1
v 0.2 0.6 0.1
v 0.8 0.6 0.1
v -0.3 1 0.2
v 0.3 1 0.2
v -0.3 1 0.1
v 0.3 1 0.1
v 0.2 2.3 0.1
v 0.7 2.3 0.1
v 0.2 2.3 0
v 0.7 2.3 0
v -0.6 3.1 0.1
v -0.1 3.1 0.1
v -0.6 3.1 0
v -0.1 3.1 0
v -0.3 3.7 0.1
v 0.3 3.7 0.1
v -0.3 3.7 0
v 0.3 3.7 0
v -0.7 4.4 0.2
v -0.2 4.4 0.2
v -0.7 4.4 0.1
v -0.2 4.4 0.1
v -0.6 0.9 0.2
v -0.1 0.9 0.2
v 0.2 0.9 0.2
v 0.8 0.9 0.2
v -0.6 0.9 0.1
v -0.1 0.9 0.1
v 0.2 0.9 0.1
v 0.8 0.9 0.1
v -0.3 1.3 0.2
v 0.3 1.3 0.2
v -0.3 1.3 0.1
v 0.3 1.3 0.1
v 0.2 2 0.1
v 0.7 2 0.1
v 0.2 2 0
v 0.7 2 0
v -0.6 2.8 0.1
v -0.1 2.8 0.1
v -0.6 2.8 0
v -0.1 2.8 0
v -0.3 3.4 0.1
v 0.3 3.4 0.1
v -0.3 3.4 0
v 0.3 3.4 0
v -0.7 4.7 0.2
v -0.2 4.7 0.2
v -0.7 4.7 0.1
v -0.2 4.7 0.1
v -1 5 0.1
v 1 5 0.1
v -1 5 -0.3
v 1 5 -0.3

# faces
f 3/3/1 2/3/1 1/3/1
f 4/3/1 2/3/1 3/3/1
f 5/2/1 4/2/1 3/2/1
f 6/2/1 4/2/1 5/2/1
f 7/3/1 6/3/1 5/3/1
f 8/3/1 6/3/1 7/3/1
f 11/1/1 10/1/1 9/1/1
f 12/1/1 10/1/1 11/1/1
f 15/1/1 14/1/1 13/1/1
f 16/1/1 14/1/1 15/1/1
f 19/1/1 18/1/1 17/1/1
f 20/1/1 18/1/1 19/1/1
f 23/3/1 22/3/1 21/3/1
f 24/3/1 22/3/1 23/3/1
f 27/1/1 26/1/1 25/1/1
f 28/1/1 26/1/1 27/1/1
f 31/3/1 30/3/1 29/3/1
f 32/3/1 30/3/1 31/3/1
f 35/3/1 34/3/1 33/3/1
f 36/3/1 34/3/1 35/3/1
f 37/3/2 38/3/2 39/3/2
f 39/3/2 38/3/2 40/3/2
f 41/3/2 42/3/2 43/3/2
f 43/3/2 42/3/2 44/3/2
f 45/1/2 46/1/2 47/1/2
f 47/1/2 46/1/2 48/1/2
f 49/1/2 50/1/2 51/1/2
f 51/1/2 50/1/2 52/1/2
f 53/3/2 54/3/2 55/3/2
f 55/3/2 54/3/2 56/3/2
f 57/1/2 58/1/2 59/1/2
f 59/1/2 58/1/2 60/1/2
f 61/1/2 62/1/2 63/1/2
f 63/1/2 62/1/2 64/1/2
f 65/3/2 66/3/2 67/3/2
f 67/3/2 66/3/2 68/3/2
f 67/2/2 68/2/2 69/2/2
f 69/2/2 68/2/2 70/2/2
f 69/3/2 70/3/2 71/3/2
f 71/3/2 70/3/2 72/3/2
f 79/1/3 74/1/3 73/1/3
f 80/1/3 74/1/3 79/1/3
f 81/1/3 76/1/3 75/1/3
f 82/1/3 76/1/3 81/1/3
f 85/1/3 78/1/3 77/1/3
f 86/1/3 78/1/3 85/1/3
f 87/1/3 84/1/3 83/1/3
f 88/1/3 84/1/3 87/1/3
f 93/3/3 92/3/3 91/3/3
f 94/3/3 92/3/3 93/3/3
f 95/3/3 93/3/3 91/3/3
f 96/3/3 93/3/3 95/3/3
f 97/3/3 93/3/3 96/3/3
f 98/3/3 93/3/3 97/3/3
f 99/3/3 97/3/3 96/3/3
f 100/3/3 97/3/3 99/3/3
f 101/3/3 93/3/3 98/3/3
f 102/3/3 93/3/3 101/3/3
f 103/3/3 93/3/3 102/3/3
f 104/3/3 92/3/3 94/3/3
f 105/3/3 95/3/3 91/3/3
f 106/3/3 99/3/3 96/3/3
f 107/3/3 97/3/3 100/3/3
f 108/3/3 101/3/3 98/3/3
f 109/3/3 106/3/3 105/3/3
f 109/3/3 105/3/3 91/3/3
f 110/3/3 99/3/3 106/3/3
f 110/3/3 106/3/3 109/3/3
f 111/3/3 108/3/3 107/3/3
f 111/3/3 107/3/3 100/3/3
f 112/3/3 108/3/3 111/3/3
f 113/3/3 99/3/3 110/3/3
f 114/3/3 111/3/3 100/3/3
f 115/3/3 108/3/3 112/3/3
f 115/3/3 101/3/3 108/3/3
f 116/3/3 103/3/3 102/3/3
f 116/3/3 104/3/3 103/3/3
f 117/3/3 114/3/3 113/3/3
f 117/3/3 111/3/3 114/3/3
f 118/3/3 115/3/3 112/3/3
f 118/3/3 116/3/3 115/3/3
f 119/3/3 109/3/3 91/3/3
f 120/3/3 117/3/3 113/3/3
f 120/3/3 113/3/3 110/3/3
f 120/3/3 118/3/3 117/3/3
f 121/3/3 90/3/3 89/3/3
f 122/2/3 91/2/3 90/2/3
f 122/3/3 90/3/3 121/3/3
f 123/3/3 120/3/3 119/3/3
f 123/2/3 91/2/3 122/2/3
f 123/3/3 119/3/3 91/3/3
f 124/3/3 118/3/3 120/3/3
f 124/3/3 120/3/3 123/3/3
f 124/3/3 104/3/3 116/3/3
f 124/3/3 116/3/3 118/3/3
f 124/3/3 92/3/3 104/3/3
f 129/3/3 126/3/3 125/3/3
f 130/3/3 126/3/3 129/3/3
f 133/3/3 128/3/3 127/3/3
f 134/3/3 128/3/3 133/3/3
f 135/3/3 132/3/3 131/3/3
f 136/3/3 132/3/3 135/3/3
f 137/3/4 138/3/4 141/3/4
f 138/2/4 139/2/4 142/2/4
f 141/3/4 138/3/4 142/3/4
f 139/3/4 140/3/4 143/3/4
f 142/2/4 139/2/4 143/2/4
f 143/3/4 140/3/4 144/3/4
f 147/3/5 146/3/5 145/3/5
f 148/3/5 146/3/5 147/3/5
f 153/1/5 150/1/5 149/1/5
f 154/1/5 150/1/5 153/1/5
f 155/1/5 152/1/5 151/1/5
f 156/1/5 152/1/5 155/1/5
f 159/1/5 158/1/5 157/1/5
f 160/1/5 158/1/5 159/1/5
f 163/3/5 162/3/5 161/3/5
f 164/3/5 162/3/5 163/3/5
f 167/3/5 166/3/5 165/3/5
f 168/3/5 166/3/5 167/3/5
f 171/3/5 170/3/5 169/3/5
f 172/3/5 170/3/5 171/3/5
f 175/1/5 174/1/5 173/1/5
f 176/1/5 174/1/5 175/1/5
f 177/1/6 178/1/6 181/1/6
f 181/1/6 178/1/6 182/1/6
f 179/1/6 180/1/6 183/1/6
f 183/1/6 180/1/6 184/1/6
f 185/1/6 186/1/6 187/1/6
f 187/1/6 186/1/6 188/1/6
f 189/3/6 190/3/6 191/3/6
f 191/3/6 190/3/6 192/3/6
f 193/3/6 194/3/6 195/3/6
f 195/3/6 194/3/6 196/3/6
f 197/3/6 198/3/6 199/3/6
f 199/3/6 198/3/6 200/3/6
f 201/1/6 202/1/6 203/1/6
f 203/1/6 202/1/6 204/1/6
f 205/3/6 206/3/6 207/3/6
f 207/3/6 206/3/6 208/3/6
