# MagicaVoxel @ Ephtracy

# group
o 

# material
mtllib wall1.mtl
usemtl palette

# normals
vn -1 0 0
vn 1 0 0
vn 0 0 1
vn 0 0 -1
vn 0 -1 0
vn 0 1 0

# texcoords
vt 0.396484 0.5
vt 0.400391 0.5
vt 0.404297 0.5

# verts
v -1 -5 0.1
v -1 -5 -0.3
v -1 0 0.1
v -1 0 -0.3
v -1 0.2 0.1
v -1 0.2 -0.3
v -1 5 0.1
v -1 5 -0.3
v -0.8 4.1 0.2
v -0.8 4.1 0.1
v -0.8 4.4 0.2
v -0.8 4.4 0.1
v -0.6 0.8 0.2
v -0.6 0.8 0.1
v -0.6 1.1 0.2
v -0.6 1.1 0.1
v -0.3 3.6 0.2
v -0.3 3.6 0.1
v -0.3 3.9 0.2
v -0.3 3.9 0.1
v -0.1 0.4 0.2
v -0.1 0.4 0.1
v -0.1 0.7 0.2
v -0.1 0.7 0.1
v 0 4.3 0.2
v 0 4.3 0.1
v 0 4.6 0.2
v 0 4.6 0.1
v 0.7 2 0.1
v 0.7 2 0
v 0.7 2.3 0.1
v 0.7 2.3 0
v -0.2 4.1 0.2
v -0.2 4.1 0.1
v -0.2 4.4 0.2
v -0.2 4.4 0.1
v 0 0.8 0.2
v 0 0.8 0.1
v 0 1.1 0.2
v 0 1.1 0.1
v 0.2 2 0.1
v 0.2 2 0
v 0.2 2.3 0.1
v 0.2 2.3 0
v 0.3 3.6 0.2
v 0.3 3.6 0.1
v 0.3 3.9 0.2
v 0.3 3.9 0.1
v 0.5 0.4 0.2
v 0.5 0.4 0.1
v 0.5 0.7 0.2
v 0.5 0.7 0.1
v 0.6 4.3 0.2
v 0.6 4.3 0.1
v 0.6 4.6 0.2
v 0.6 4.6 0.1
v 1 -5 0.1
v 1 -5 -0.3
v 1 0 0.1
v 1 0 -0.3
v 1 0.2 0.1
v 1 0.2 -0.3
v 1 5 0.1
v 1 5 -0.3
v -0.8 4.1 0.2
v -0.8 4.4 0.2
v -0.6 0.8 0.2
v -0.6 1.1 0.2
v -0.3 3.6 0.2
v -0.3 3.9 0.2
v -0.2 4.1 0.2
v -0.2 4.4 0.2
v -0.1 0.4 0.2
v -0.1 0.7 0.2
v 0 0.8 0.2
v 0 1.1 0.2
v 0 4.3 0.2
v 0 4.6 0.2
v 0.3 3.6 0.2
v 0.3 3.9 0.2
v 0.5 0.4 0.2
v 0.5 0.7 0.2
v 0.6 4.3 0.2
v 0.6 4.6 0.2
v -1 -5 0.1
v -1 0 0.1
v -1 0.2 0.1
v -1 5 0.1
v -0.8 4.1 0.1
v -0.8 4.4 0.1
v -0.6 0.8 0.1
v -0.6 1.1 0.1
v -0.3 3.6 0.1
v -0.3 3.9 0.1
v -0.2 4.1 0.1
v -0.2 4.4 0.1
v -0.1 0.4 0.1
v -0.1 0.7 0.1
v 0 0.8 0.1
v 0 1.1 0.1
v 0 4.3 0.1
v 0 4.6 0.1
v 0.2 2 0.1
v 0.2 2.3 0.1
v 0.3 3.6 0.1
v 0.3 3.9 0.1
v 0.5 0.4 0.1
v 0.5 0.7 0.1
v 0.6 4.3 0.1
v 0.6 4.6 0.1
v 0.7 2 0.1
v 0.7 2.3 0.1
v 1 -5 0.1
v 1 0 0.1
v 1 0.2 0.1
v 1 5 0.1
v 0.2 2 0
v 0.2 2.3 0
v 0.7 2 0
v 0.7 2.3 0
v -1 -5 -0.3
v -1 0 -0.3
v -1 0.2 -0.3
v -1 5 -0.3
v 1 -5 -0.3
v 1 0 -0.3
v 1 0.2 -0.3
v 1 5 -0.3
v -1 -5 0.1
v 1 -5 0.1
v -1 -5 -0.3
v 1 -5 -0.3
v -0.1 0.4 0.2
v 0.5 0.4 0.2
v -0.1 0.4 0.1
v 0.5 0.4 0.1
v -0.6 0.8 0.2
v 0 0.8 0.2
v -0.6 0.8 0.1
v 0 0.8 0.1
v 0.2 2.3 0.1
v 0.7 2.3 0.1
v 0.2 2.3 0
v 0.7 2.3 0
v -0.3 3.6 0.2
v 0.3 3.6 0.2
v -0.3 3.6 0.1
v 0.3 3.6 0.1
v -0.8 4.1 0.2
v -0.2 4.1 0.2
v -0.8 4.1 0.1
v -0.2 4.1 0.1
v 0 4.3 0.2
v 0.6 4.3 0.2
v 0 4.3 0.1
v 0.6 4.3 0.1
v -0.1 0.7 0.2
v 0.5 0.7 0.2
v -0.1 0.7 0.1
v 0.5 0.7 0.1
v -0.6 1.1 0.2
v 0 1.1 0.2
v -0.6 1.1 0.1
v 0 1.1 0.1
v 0.2 2 0.1
v 0.7 2 0.1
v 0.2 2 0
v 0.7 2 0
v -0.3 3.9 0.2
v 0.3 3.9 0.2
v -0.3 3.9 0.1
v 0.3 3.9 0.1
v -0.8 4.4 0.2
v -0.2 4.4 0.2
v -0.8 4.4 0.1
v -0.2 4.4 0.1
v 0 4.6 0.2
v 0.6 4.6 0.2
v 0 4.6 0.1
v 0.6 4.6 0.1
v -1 5 0.1
v 1 5 0.1
v -1 5 -0.3
v 1 5 -0.3

# faces
f 3/3/1 2/3/1 1/3/1
f 4/3/1 2/3/1 3/3/1
f 5/2/1 4/2/1 3/2/1
f 6/2/1 4/2/1 5/2/1
f 7/3/1 6/3/1 5/3/1
f 8/3/1 6/3/1 7/3/1
f 11/1/1 10/1/1 9/1/1
f 12/1/1 10/1/1 11/1/1
f 15/1/1 14/1/1 13/1/1
f 16/1/1 14/1/1 15/1/1
f 19/1/1 18/1/1 17/1/1
f 20/1/1 18/1/1 19/1/1
f 23/1/1 22/1/1 21/1/1
f 24/1/1 22/1/1 23/1/1
f 27/1/1 26/1/1 25/1/1
f 28/1/1 26/1/1 27/1/1
f 31/3/1 30/3/1 29/3/1
f 32/3/1 30/3/1 31/3/1
f 33/1/2 34/1/2 35/1/2
f 35/1/2 34/1/2 36/1/2
f 37/1/2 38/1/2 39/1/2
f 39/1/2 38/1/2 40/1/2
f 41/3/2 42/3/2 43/3/2
f 43/3/2 42/3/2 44/3/2
f 45/1/2 46/1/2 47/1/2
f 47/1/2 46/1/2 48/1/2
f 49/1/2 50/1/2 51/1/2
f 51/1/2 50/1/2 52/1/2
f 53/1/2 54/1/2 55/1/2
f 55/1/2 54/1/2 56/1/2
f 57/3/2 58/3/2 59/3/2
f 59/3/2 58/3/2 60/3/2
f 59/2/2 60/2/2 61/2/2
f 61/2/2 60/2/2 62/2/2
f 61/3/2 62/3/2 63/3/2
f 63/3/2 62/3/2 64/3/2
f 71/1/3 66/1/3 65/1/3
f 72/1/3 66/1/3 71/1/3
f 75/1/3 68/1/3 67/1/3
f 76/1/3 68/1/3 75/1/3
f 79/1/3 70/1/3 69/1/3
f 80/1/3 70/1/3 79/1/3
f 81/1/3 74/1/3 73/1/3
f 82/1/3 74/1/3 81/1/3
f 83/1/3 78/1/3 77/1/3
f 84/1/3 78/1/3 83/1/3
f 89/3/3 88/3/3 87/3/3
f 90/3/3 88/3/3 89/3/3
f 91/3/3 89/3/3 87/3/3
f 92/3/3 89/3/3 91/3/3
f 93/3/3 89/3/3 92/3/3
f 94/3/3 89/3/3 93/3/3
f 95/3/3 89/3/3 94/3/3
f 96/3/3 88/3/3 90/3/3
f 97/3/3 91/3/3 87/3/3
f 98/3/3 91/3/3 97/3/3
f 99/3/3 91/3/3 98/3/3
f 100/3/3 93/3/3 92/3/3
f 101/3/3 96/3/3 95/3/3
f 102/3/3 88/3/3 96/3/3
f 102/3/3 96/3/3 101/3/3
f 103/3/3 100/3/3 99/3/3
f 103/3/3 93/3/3 100/3/3
f 104/3/3 93/3/3 103/3/3
f 105/3/3 93/3/3 104/3/3
f 106/3/3 95/3/3 94/3/3
f 106/3/3 101/3/3 95/3/3
f 107/3/3 97/3/3 87/3/3
f 108/3/3 99/3/3 98/3/3
f 108/3/3 103/3/3 99/3/3
f 109/3/3 101/3/3 106/3/3
f 109/3/3 106/3/3 105/3/3
f 110/3/3 88/3/3 102/3/3
f 111/3/3 108/3/3 107/3/3
f 111/3/3 103/3/3 108/3/3
f 112/3/3 105/3/3 104/3/3
f 112/3/3 109/3/3 105/3/3
f 112/3/3 110/3/3 109/3/3
f 113/3/3 86/3/3 85/3/3
f 114/2/3 87/2/3 86/2/3
f 114/3/3 86/3/3 113/3/3
f 115/3/3 112/3/3 111/3/3
f 115/2/3 87/2/3 114/2/3
f 115/3/3 111/3/3 107/3/3
f 115/3/3 107/3/3 87/3/3
f 116/3/3 110/3/3 112/3/3
f 116/3/3 112/3/3 115/3/3
f 116/3/3 88/3/3 110/3/3
f 119/3/3 118/3/3 117/3/3
f 120/3/3 118/3/3 119/3/3
f 121/3/4 122/3/4 125/3/4
f 122/2/4 123/2/4 126/2/4
f 125/3/4 122/3/4 126/3/4
f 123/3/4 124/3/4 127/3/4
f 126/2/4 123/2/4 127/2/4
f 127/3/4 124/3/4 128/3/4
f 131/3/5 130/3/5 129/3/5
f 132/3/5 130/3/5 131/3/5
f 135/1/5 134/1/5 133/1/5
f 136/1/5 134/1/5 135/1/5
f 139/1/5 138/1/5 137/1/5
f 140/1/5 138/1/5 139/1/5
f 143/3/5 142/3/5 141/3/5
f 144/3/5 142/3/5 143/3/5
f 147/1/5 146/1/5 145/1/5
f 148/1/5 146/1/5 147/1/5
f 151/1/5 150/1/5 149/1/5
f 152/1/5 150/1/5 151/1/5
f 155/1/5 154/1/5 153/1/5
f 156/1/5 154/1/5 155/1/5
f 157/1/6 158/1/6 159/1/6
f 159/1/6 158/1/6 160/1/6
f 161/1/6 162/1/6 163/1/6
f 163/1/6 162/1/6 164/1/6
f 165/3/6 166/3/6 167/3/6
f 167/3/6 166/3/6 168/3/6
f 169/1/6 170/1/6 171/1/6
f 171/1/6 170/1/6 172/1/6
f 173/1/6 174/1/6 175/1/6
f 175/1/6 174/1/6 176/1/6
f 177/1/6 178/1/6 179/1/6
f 179/1/6 178/1/6 180/1/6
f 181/3/6 182/3/6 183/3/6
f 183/3/6 182/3/6 184/3/6
