# MagicaVoxel @ Ephtracy

# group
o 

# material
mtllib throne.mtl
usemtl palette

# normals
vn -1 0 0
vn 1 0 0
vn 0 0 1
vn 0 0 -1
vn 0 -1 0
vn 0 1 0

# texcoords
vt 0.0683594 0.5
vt 0.849609 0.5

# verts
v -1 0 1
v -1 0 -1
v -1 1.2 1
v -1 1.2 0.6
v -1 1.2 -0.6
v -1 1.2 -1
v -1 2.6 0.6
v -1 2.6 -0.6
v -0.6 0.6 0.6
v -0.6 0.6 0.4
v -0.6 0.6 -0.4
v -0.6 0.6 -0.6
v -0.6 1.2 0.6
v -0.6 1.2 -0.6
v -0.6 1.8 0.2
v -0.6 1.8 -0.2
v -0.6 2.2 0.2
v -0.6 2.2 -0.2
v -0.6 2.4 0.4
v -0.6 2.4 -0.4
v -0.6 2.6 0.6
v -0.6 2.6 -0.6
v 0.8 0 1
v 0.8 0 -1
v 0.8 0.2 0.6
v 0.8 0.2 -0.6
v 0.8 0.6 0.6
v 0.8 0.6 -0.6
v 0.8 1.2 1
v 0.8 1.2 0.6
v 0.8 1.2 -0.6
v 0.8 1.2 -1
v -1 0 1
v -1 1.2 1
v -0.6 0.2 1
v -0.6 1.2 1
v 0.6 0.2 1
v 0.6 1.2 1
v 0.8 0 1
v 0.8 1.2 1
v -1 1.2 0.6
v -1 2.6 0.6
v -0.6 1.2 0.6
v -0.6 2.6 0.6
v -0.6 0.6 -0.6
v -0.6 1.2 -0.6
v 0.5 0.6 -0.6
v 0.5 1.2 -0.6
v 0.8 0.6 -0.6
v 0.8 1.2 -0.6
v -0.6 0.6 0.6
v -0.6 1.2 0.6
v 0.6 0.6 0.6
v 0.6 1.2 0.6
v 0.8 0.6 0.6
v 0.8 1.2 0.6
v -1 1.2 -0.6
v -1 2.6 -0.6
v -0.6 1.2 -0.6
v -0.6 2.6 -0.6
v -1 0 -1
v -1 1.2 -1
v -0.6 0.2 -1
v -0.6 1.2 -1
v 0.5 0.2 -1
v 0.5 1.2 -1
v 0.8 0 -1
v 0.8 1.2 -1
v -1 0 1
v 0.8 0 1
v -1 0 -1
v 0.8 0 -1
v -0.6 0.6 0.6
v 0.6 0.6 0.6
v 0.8 0.6 0.6
v -0.6 0.6 0.4
v -0.6 0.6 -0.4
v -0.6 0.6 -0.6
v 0.5 0.6 -0.6
v 0.8 0.6 -0.6
v -1 1.2 1
v -0.6 1.2 1
v 0.6 1.2 1
v 0.8 1.2 1
v -1 1.2 0.6
v -0.6 1.2 0.6
v 0.6 1.2 0.6
v 0.8 1.2 0.6
v -1 1.2 -0.6
v -0.6 1.2 -0.6
v 0.5 1.2 -0.6
v 0.8 1.2 -0.6
v -1 1.2 -1
v -0.6 1.2 -1
v 0.5 1.2 -1
v 0.8 1.2 -1
v -1 2.6 0.6
v -0.6 2.6 0.6
v -1 2.6 -0.6
v -0.6 2.6 -0.6

# faces
f 3/1/1 2/1/1 1/1/1
f 4/1/1 2/1/1 3/1/1
f 5/1/1 2/1/1 4/1/1
f 6/1/1 2/1/1 5/1/1
f 7/1/1 5/1/1 4/1/1
f 8/1/1 5/1/1 7/1/1
f 9/1/2 10/1/2 13/1/2
f 11/1/2 12/1/2 14/1/2
f 10/2/2 11/2/2 15/2/2
f 15/2/2 11/2/2 16/2/2
f 10/2/2 15/2/2 17/2/2
f 15/1/2 16/1/2 17/1/2
f 16/2/2 11/2/2 18/2/2
f 17/1/2 16/1/2 18/1/2
f 13/1/2 10/1/2 19/1/2
f 10/2/2 17/2/2 19/2/2
f 17/2/2 18/2/2 19/2/2
f 18/2/2 11/2/2 20/2/2
f 19/2/2 18/2/2 20/2/2
f 11/1/2 14/1/2 20/1/2
f 13/1/2 19/1/2 21/1/2
f 19/1/2 20/1/2 21/1/2
f 20/1/2 14/1/2 22/1/2
f 21/1/2 20/1/2 22/1/2
f 23/1/2 24/1/2 25/1/2
f 25/1/2 24/1/2 26/1/2
f 23/1/2 25/1/2 27/1/2
f 25/2/2 26/2/2 27/2/2
f 26/1/2 24/1/2 28/1/2
f 27/2/2 26/2/2 28/2/2
f 23/1/2 27/1/2 29/1/2
f 29/1/2 27/1/2 30/1/2
f 28/1/2 24/1/2 31/1/2
f 31/1/2 24/1/2 32/1/2
f 35/1/3 34/1/3 33/1/3
f 36/1/3 34/1/3 35/1/3
f 37/1/3 35/1/3 33/1/3
f 37/2/3 36/2/3 35/2/3
f 38/2/3 36/2/3 37/2/3
f 39/1/3 37/1/3 33/1/3
f 39/1/3 38/1/3 37/1/3
f 40/1/3 38/1/3 39/1/3
f 43/1/3 42/1/3 41/1/3
f 44/1/3 42/1/3 43/1/3
f 47/2/3 46/2/3 45/2/3
f 48/2/3 46/2/3 47/2/3
f 49/1/3 48/1/3 47/1/3
f 50/1/3 48/1/3 49/1/3
f 51/2/4 52/2/4 53/2/4
f 53/2/4 52/2/4 54/2/4
f 53/1/4 54/1/4 55/1/4
f 55/1/4 54/1/4 56/1/4
f 57/1/4 58/1/4 59/1/4
f 59/1/4 58/1/4 60/1/4
f 61/1/4 62/1/4 63/1/4
f 63/1/4 62/1/4 64/1/4
f 61/1/4 63/1/4 65/1/4
f 63/2/4 64/2/4 65/2/4
f 65/2/4 64/2/4 66/2/4
f 61/1/4 65/1/4 67/1/4
f 65/1/4 66/1/4 67/1/4
f 67/1/4 66/1/4 68/1/4
f 71/1/5 70/1/5 69/1/5
f 72/1/5 70/1/5 71/1/5
f 73/2/6 74/2/6 76/2/6
f 74/2/6 75/2/6 76/2/6
f 76/2/6 75/2/6 77/2/6
f 77/2/6 75/2/6 78/2/6
f 78/2/6 75/2/6 79/2/6
f 79/2/6 75/2/6 80/2/6
f 81/1/6 82/1/6 85/1/6
f 82/2/6 83/2/6 86/2/6
f 85/1/6 82/1/6 86/1/6
f 83/1/6 84/1/6 87/1/6
f 86/2/6 83/2/6 87/2/6
f 87/1/6 84/1/6 88/1/6
f 89/1/6 90/1/6 93/1/6
f 90/2/6 91/2/6 94/2/6
f 93/1/6 90/1/6 94/1/6
f 91/1/6 92/1/6 95/1/6
f 94/2/6 91/2/6 95/2/6
f 95/1/6 92/1/6 96/1/6
f 97/1/6 98/1/6 99/1/6
f 99/1/6 98/1/6 100/1/6
