# MagicaVoxel @ Ephtracy

# group
o 

# material
mtllib bones1.mtl
usemtl palette

# normals
vn -1 0 0
vn 1 0 0
vn 0 0 1
vn 0 0 -1
vn 0 -1 0
vn 0 1 0

# texcoords
vt 0.400391 0.5
vt 0.404297 0.5
vt 0.966797 0.5
vt 0.978516 0.5

# verts
v -1 -2 1
v -1 -2 -1
v -1 -1.9 0.9
v -1 -1.9 -0.9
v -1 -0.0999999 0.9
v -1 -0.0999999 -0.9
v -1 2.38419e-07 1
v -1 2.38419e-07 -1
v -0.8 2.38419e-07 0.3
v -0.8 2.38419e-07 0
v -0.8 0.1 0
v -0.8 0.1 -0.1
v -0.8 0.2 0.4
v -0.8 0.2 0.3
v -0.8 0.4 0.4
v -0.8 0.4 0.3
v -0.8 0.5 0.3
v -0.8 0.5 -0.1
v -0.7 2.38419e-07 0.4
v -0.7 2.38419e-07 0.3
v -0.7 2.38419e-07 0
v -0.7 2.38419e-07 -0.1
v -0.7 0.1 0
v -0.7 0.1 -0.1
v -0.7 0.2 0.4
v -0.7 0.2 0.3
v -0.7 0.4 0.4
v -0.7 0.4 0.3
v -0.7 0.5 0.4
v -0.7 0.5 0.3
v -0.6 0.2 0
v -0.6 0.2 -0.1
v -0.6 0.3 0
v -0.6 0.3 -0.1
v -0.4 0.2 0
v -0.4 0.2 -0.1
v -0.4 0.3 0
v -0.4 0.3 -0.1
v -0.2 2.38419e-07 -0.2
v -0.2 2.38419e-07 -0.3
v -0.2 0.1 0.5
v -0.2 0.1 0.4
v -0.2 0.1 -0.2
v -0.2 0.1 -0.3
v -0.2 0.3 0.5
v -0.2 0.3 0.4
v -0.1 2.38419e-07 0.5
v -0.1 2.38419e-07 0.4
v -0.1 2.38419e-07 -0.1
v -0.1 2.38419e-07 -0.2
v -0.1 2.38419e-07 -0.3
v -0.1 2.38419e-07 -0.4
v -0.1 0.1 0.5
v -0.1 0.1 0.4
v -0.1 0.1 -0.1
v -0.1 0.1 -0.2
v -0.1 0.1 -0.3
v -0.1 0.1 -0.4
v 0 2.38419e-07 -0.4
v 0 2.38419e-07 -0.5
v 0 0.1 -0.4
v 0 0.1 -0.5
v 0.1 2.38419e-07 -0.5
v 0.1 2.38419e-07 -0.6
v 0.1 0.1 -0.5
v 0.1 0.1 -0.6
v 0.2 2.38419e-07 -0.6
v 0.2 2.38419e-07 -0.7
v 0.2 0.1 -0.6
v 0.2 0.1 -0.7
v 0.3 2.38419e-07 0.8
v 0.3 2.38419e-07 0.6
v 0.3 2.38419e-07 0.3
v 0.3 2.38419e-07 0.1
v 0.3 0.1 0.8
v 0.3 0.1 0.6
v 0.3 0.1 0.5
v 0.3 0.1 0.4
v 0.3 0.1 0.3
v 0.3 0.1 0.1
v 0.3 0.2 0.5
v 0.3 0.2 0.4
v 0.4 2.38419e-07 0.6
v 0.4 2.38419e-07 0.5
v 0.4 2.38419e-07 0.4
v 0.4 2.38419e-07 0.3
v 0.4 0.1 0.6
v 0.4 0.1 0.5
v 0.4 0.1 0.4
v 0.4 0.1 0.3
v 0.4 0.2 0.5
v 0.4 0.2 0.4
v 0.4 0.3 0.5
v 0.4 0.3 0.4
v 0.5 2.38419e-07 0.8
v 0.5 2.38419e-07 0.7
v 0.5 2.38419e-07 0.2
v 0.5 2.38419e-07 0.1
v 0.5 0.1 0.8
v 0.5 0.1 0.7
v 0.5 0.1 0.2
v 0.5 0.1 0.1
v -0.7 0.2 0
v -0.7 0.2 -0.1
v -0.7 0.3 0
v -0.7 0.3 -0.1
v -0.5 0.2 0
v -0.5 0.2 -0.1
v -0.5 0.3 0
v -0.5 0.3 -0.1
v -0.4 2.38419e-07 0.4
v -0.4 2.38419e-07 0.3
v -0.4 2.38419e-07 0
v -0.4 2.38419e-07 -0.1
v -0.4 0.1 0
v -0.4 0.1 -0.1
v -0.4 0.2 0.4
v -0.4 0.2 0.3
v -0.4 0.4 0.4
v -0.4 0.4 0.3
v -0.4 0.5 0.4
v -0.4 0.5 0.3
v -0.3 2.38419e-07 0.3
v -0.3 2.38419e-07 0
v -0.3 0.1 0
v -0.3 0.1 -0.1
v -0.3 0.2 0.4
v -0.3 0.2 0.3
v -0.3 0.4 0.4
v -0.3 0.4 0.3
v -0.3 0.5 0.3
v -0.3 0.5 -0.1
v -0.1 0.2 0.5
v -0.1 0.2 0.4
v -0.1 0.3 0.5
v -0.1 0.3 0.4
v 0 2.38419e-07 -0.1
v 0 2.38419e-07 -0.3
v 0 0.1 0.5
v 0 0.1 0.4
v 0 0.1 -0.1
v 0 0.1 -0.3
v 0 0.2 0.5
v 0 0.2 0.4
v 0.1 2.38419e-07 -0.3
v 0.1 2.38419e-07 -0.4
v 0.1 0.1 -0.3
v 0.1 0.1 -0.4
v 0.2 2.38419e-07 -0.4
v 0.2 2.38419e-07 -0.5
v 0.2 0.1 -0.4
v 0.2 0.1 -0.5
v 0.3 2.38419e-07 -0.6
v 0.3 2.38419e-07 -0.7
v 0.3 0.1 -0.6
v 0.3 0.1 -0.7
v 0.4 2.38419e-07 0.8
v 0.4 2.38419e-07 0.7
v 0.4 2.38419e-07 0.2
v 0.4 2.38419e-07 0.1
v 0.4 2.38419e-07 -0.5
v 0.4 2.38419e-07 -0.6
v 0.4 0.1 0.8
v 0.4 0.1 0.7
v 0.4 0.1 0.2
v 0.4 0.1 0.1
v 0.4 0.1 -0.5
v 0.4 0.1 -0.6
v 0.5 2.38419e-07 0.6
v 0.5 2.38419e-07 0.3
v 0.5 0.1 0.6
v 0.5 0.1 0.5
v 0.5 0.1 0.4
v 0.5 0.1 0.3
v 0.5 0.3 0.5
v 0.5 0.3 0.4
v 0.6 2.38419e-07 0.8
v 0.6 2.38419e-07 0.6
v 0.6 2.38419e-07 0.3
v 0.6 2.38419e-07 0.1
v 0.6 0.1 0.8
v 0.6 0.1 0.6
v 0.6 0.1 0.3
v 0.6 0.1 0.1
v 1 -2 1
v 1 -2 -1
v 1 -1.9 0.9
v 1 -1.9 -0.9
v 1 -0.0999999 0.9
v 1 -0.0999999 -0.9
v 1 2.38419e-07 1
v 1 2.38419e-07 -1
v -1 -2 1
v -1 2.38419e-07 1
v -0.9 -1.9 1
v -0.9 -0.0999999 1
v 0.9 -1.9 1
v 0.9 -0.0999999 1
v 1 -2 1
v 1 2.38419e-07 1
v 0.3 2.38419e-07 0.8
v 0.3 0.1 0.8
v 0.4 2.38419e-07 0.8
v 0.4 0.1 0.8
v 0.5 2.38419e-07 0.8
v 0.5 0.1 0.8
v 0.6 2.38419e-07 0.8
v 0.6 0.1 0.8
v 0.4 2.38419e-07 0.7
v 0.4 0.1 0.7
v 0.5 2.38419e-07 0.7
v 0.5 0.1 0.7
v -0.2 0.1 0.5
v -0.2 0.3 0.5
v -0.1 2.38419e-07 0.5
v -0.1 0.1 0.5
v -0.1 0.2 0.5
v -0.1 0.3 0.5
v 0 0.1 0.5
v 0 0.2 0.5
v 0.3 0.1 0.5
v 0.3 0.2 0.5
v 0.4 2.38419e-07 0.5
v 0.4 0.1 0.5
v 0.4 0.2 0.5
v 0.4 0.3 0.5
v 0.5 0.1 0.5
v 0.5 0.3 0.5
v -0.8 0.2 0.4
v -0.8 0.4 0.4
v -0.7 2.38419e-07 0.4
v -0.7 0.2 0.4
v -0.7 0.4 0.4
v -0.7 0.5 0.4
v -0.4 2.38419e-07 0.4
v -0.4 0.2 0.4
v -0.4 0.4 0.4
v -0.4 0.5 0.4
v -0.3 0.2 0.4
v -0.3 0.4 0.4
v -0.8 2.38419e-07 0.3
v -0.8 0.2 0.3
v -0.8 0.4 0.3
v -0.8 0.5 0.3
v -0.7 2.38419e-07 0.3
v -0.7 0.2 0.3
v -0.7 0.4 0.3
v -0.7 0.5 0.3
v -0.4 2.38419e-07 0.3
v -0.4 0.2 0.3
v -0.4 0.4 0.3
v -0.4 0.5 0.3
v -0.3 2.38419e-07 0.3
v -0.3 0.2 0.3
v -0.3 0.4 0.3
v -0.3 0.5 0.3
v 0.3 2.38419e-07 0.3
v 0.3 0.1 0.3
v 0.4 2.38419e-07 0.3
v 0.4 0.1 0.3
v 0.5 2.38419e-07 0.3
v 0.5 0.1 0.3
v 0.6 2.38419e-07 0.3
v 0.6 0.1 0.3
v -0.1 2.38419e-07 -0.1
v -0.1 0.1 -0.1
v 0 2.38419e-07 -0.1
v 0 0.1 -0.1
v -0.2 2.38419e-07 -0.2
v -0.2 0.1 -0.2
v -0.1 2.38419e-07 -0.2
v -0.1 0.1 -0.2
v 0 2.38419e-07 -0.3
v 0 0.1 -0.3
v 0.1 2.38419e-07 -0.3
v 0.1 0.1 -0.3
v 0.1 2.38419e-07 -0.4
v 0.1 0.1 -0.4
v 0.2 2.38419e-07 -0.4
v 0.2 0.1 -0.4
v 0.2 2.38419e-07 -0.5
v 0.2 0.1 -0.5
v 0.4 2.38419e-07 -0.5
v 0.4 0.1 -0.5
v 0.3 2.38419e-07 0.6
v 0.3 0.1 0.6
v 0.4 2.38419e-07 0.6
v 0.4 0.1 0.6
v 0.5 2.38419e-07 0.6
v 0.5 0.1 0.6
v 0.6 2.38419e-07 0.6
v 0.6 0.1 0.6
v -0.2 0.1 0.4
v -0.2 0.3 0.4
v -0.1 2.38419e-07 0.4
v -0.1 0.1 0.4
v -0.1 0.2 0.4
v -0.1 0.3 0.4
v 0 0.1 0.4
v 0 0.2 0.4
v 0.3 0.1 0.4
v 0.3 0.2 0.4
v 0.4 2.38419e-07 0.4
v 0.4 0.1 0.4
v 0.4 0.2 0.4
v 0.4 0.3 0.4
v 0.5 0.1 0.4
v 0.5 0.3 0.4
v 0.4 2.38419e-07 0.2
v 0.4 0.1 0.2
v 0.5 2.38419e-07 0.2
v 0.5 0.1 0.2
v 0.3 2.38419e-07 0.1
v 0.3 0.1 0.1
v 0.4 2.38419e-07 0.1
v 0.4 0.1 0.1
v 0.5 2.38419e-07 0.1
v 0.5 0.1 0.1
v 0.6 2.38419e-07 0.1
v 0.6 0.1 0.1
v -0.8 2.38419e-07 0
v -0.8 0.1 0
v -0.7 2.38419e-07 0
v -0.7 0.1 0
v -0.7 0.2 0
v -0.7 0.3 0
v -0.6 0.2 0
v -0.6 0.3 0
v -0.5 0.2 0
v -0.5 0.3 0
v -0.4 2.38419e-07 0
v -0.4 0.1 0
v -0.4 0.2 0
v -0.4 0.3 0
v -0.3 2.38419e-07 0
v -0.3 0.1 0
v -0.8 0.1 -0.1
v -0.8 0.5 -0.1
v -0.7 2.38419e-07 -0.1
v -0.7 0.1 -0.1
v -0.7 0.2 -0.1
v -0.7 0.3 -0.1
v -0.6 0.2 -0.1
v -0.6 0.3 -0.1
v -0.5 0.2 -0.1
v -0.5 0.3 -0.1
v -0.4 2.38419e-07 -0.1
v -0.4 0.1 -0.1
v -0.4 0.2 -0.1
v -0.4 0.3 -0.1
v -0.3 0.1 -0.1
v -0.3 0.5 -0.1
v -0.2 2.38419e-07 -0.3
v -0.2 0.1 -0.3
v -0.1 2.38419e-07 -0.3
v -0.1 0.1 -0.3
v -0.1 2.38419e-07 -0.4
v -0.1 0.1 -0.4
v 0 2.38419e-07 -0.4
v 0 0.1 -0.4
v 0 2.38419e-07 -0.5
v 0 0.1 -0.5
v 0.1 2.38419e-07 -0.5
v 0.1 0.1 -0.5
v 0.1 2.38419e-07 -0.6
v 0.1 0.1 -0.6
v 0.2 2.38419e-07 -0.6
v 0.2 0.1 -0.6
v 0.3 2.38419e-07 -0.6
v 0.3 0.1 -0.6
v 0.4 2.38419e-07 -0.6
v 0.4 0.1 -0.6
v 0.2 2.38419e-07 -0.7
v 0.2 0.1 -0.7
v 0.3 2.38419e-07 -0.7
v 0.3 0.1 -0.7
v -1 -2 -1
v -1 2.38419e-07 -1
v -0.9 -1.9 -1
v -0.9 -0.0999999 -1
v 0.9 -1.9 -1
v 0.9 -0.0999999 -1
v 1 -2 -1
v 1 2.38419e-07 -1
v -1 -2 1
v 1 -2 1
v -0.9 -2 0.9
v 0.9 -2 0.9
v -0.4 -2 -0.5
v -0.2 -2 -0.5
v -0.4 -2 -0.8
v -0.2 -2 -0.8
v -0.9 -2 -0.9
v 0.9 -2 -0.9
v -1 -2 -1
v 1 -2 -1
v -0.2 0.1 0.5
v -0.1 0.1 0.5
v -0.2 0.1 0.4
v -0.1 0.1 0.4
v -0.8 0.1 0
v -0.7 0.1 0
v -0.4 0.1 0
v -0.3 0.1 0
v -0.8 0.1 -0.1
v -0.7 0.1 -0.1
v -0.4 0.1 -0.1
v -0.3 0.1 -0.1
v -0.8 0.2 0.4
v -0.7 0.2 0.4
v -0.4 0.2 0.4
v -0.3 0.2 0.4
v -0.8 0.2 0.3
v -0.7 0.2 0.3
v -0.4 0.2 0.3
v -0.3 0.2 0.3
v -0.7 0.3 0
v -0.6 0.3 0
v -0.5 0.3 0
v -0.4 0.3 0
v -0.7 0.3 -0.1
v -0.6 0.3 -0.1
v -0.5 0.3 -0.1
v -0.4 0.3 -0.1
v -1 2.38419e-07 1
v 1 2.38419e-07 1
v -0.9 2.38419e-07 0.9
v 0.9 2.38419e-07 0.9
v 0.3 2.38419e-07 0.8
v 0.4 2.38419e-07 0.8
v 0.5 2.38419e-07 0.8
v 0.6 2.38419e-07 0.8
v 0.4 2.38419e-07 0.7
v 0.5 2.38419e-07 0.7
v 0.3 2.38419e-07 0.6
v 0.4 2.38419e-07 0.6
v 0.5 2.38419e-07 0.6
v 0.6 2.38419e-07 0.6
v -0.1 2.38419e-07 0.5
v 0.4 2.38419e-07 0.5
v -0.7 2.38419e-07 0.4
v -0.4 2.38419e-07 0.4
v -0.1 2.38419e-07 0.4
v 0.4 2.38419e-07 0.4
v -0.8 2.38419e-07 0.3
v -0.7 2.38419e-07 0.3
v -0.4 2.38419e-07 0.3
v -0.3 2.38419e-07 0.3
v 0.3 2.38419e-07 0.3
v 0.4 2.38419e-07 0.3
v 0.5 2.38419e-07 0.3
v 0.6 2.38419e-07 0.3
v 0.4 2.38419e-07 0.2
v 0.5 2.38419e-07 0.2
v 0.3 2.38419e-07 0.1
v 0.4 2.38419e-07 0.1
v 0.5 2.38419e-07 0.1
v 0.6 2.38419e-07 0.1
v -0.8 2.38419e-07 0
v -0.7 2.38419e-07 0
v -0.4 2.38419e-07 0
v -0.3 2.38419e-07 0
v -0.7 2.38419e-07 -0.1
v -0.4 2.38419e-07 -0.1
v -0.1 2.38419e-07 -0.1
v 0 2.38419e-07 -0.1
v -0.2 2.38419e-07 -0.2
v -0.1 2.38419e-07 -0.2
v -0.2 2.38419e-07 -0.3
v -0.1 2.38419e-07 -0.3
v 0 2.38419e-07 -0.3
v 0.1 2.38419e-07 -0.3
v -0.1 2.38419e-07 -0.4
v 0 2.38419e-07 -0.4
v 0.1 2.38419e-07 -0.4
v 0.2 2.38419e-07 -0.4
v 0 2.38419e-07 -0.5
v 0.1 2.38419e-07 -0.5
v 0.2 2.38419e-07 -0.5
v 0.4 2.38419e-07 -0.5
v 0.1 2.38419e-07 -0.6
v 0.2 2.38419e-07 -0.6
v 0.3 2.38419e-07 -0.6
v 0.4 2.38419e-07 -0.6
v 0.2 2.38419e-07 -0.7
v 0.3 2.38419e-07 -0.7
v -0.9 2.38419e-07 -0.9
v 0.9 2.38419e-07 -0.9
v -1 2.38419e-07 -1
v 1 2.38419e-07 -1
v 0.3 0.1 0.8
v 0.4 0.1 0.8
v 0.5 0.1 0.8
v 0.6 0.1 0.8
v 0.4 0.1 0.7
v 0.5 0.1 0.7
v 0.3 0.1 0.6
v 0.4 0.1 0.6
v 0.5 0.1 0.6
v 0.6 0.1 0.6
v 0 0.1 0.5
v 0.3 0.1 0.5
v 0.4 0.1 0.5
v 0.5 0.1 0.5
v 0 0.1 0.4
v 0.3 0.1 0.4
v 0.4 0.1 0.4
v 0.5 0.1 0.4
v 0.3 0.1 0.3
v 0.4 0.1 0.3
v 0.5 0.1 0.3
v 0.6 0.1 0.3
v 0.4 0.1 0.2
v 0.5 0.1 0.2
v 0.3 0.1 0.1
v 0.4 0.1 0.1
v 0.5 0.1 0.1
v 0.6 0.1 0.1
v -0.1 0.1 -0.1
v 0 0.1 -0.1
v -0.2 0.1 -0.2
v -0.1 0.1 -0.2
v -0.2 0.1 -0.3
v -0.1 0.1 -0.3
v 0 0.1 -0.3
v 0.1 0.1 -0.3
v -0.1 0.1 -0.4
v 0 0.1 -0.4
v 0.1 0.1 -0.4
v 0.2 0.1 -0.4
v 0 0.1 -0.5
v 0.1 0.1 -0.5
v 0.2 0.1 -0.5
v 0.4 0.1 -0.5
v 0.1 0.1 -0.6
v 0.2 0.1 -0.6
v 0.3 0.1 -0.6
v 0.4 0.1 -0.6
v 0.2 0.1 -0.7
v 0.3 0.1 -0.7
v -0.1 0.2 0.5
v 0 0.2 0.5
v 0.3 0.2 0.5
v 0.4 0.2 0.5
v -0.1 0.2 0.4
v 0 0.2 0.4
v 0.3 0.2 0.4
v 0.4 0.2 0.4
v -0.7 0.2 0
v -0.6 0.2 0
v -0.5 0.2 0
v -0.4 0.2 0
v -0.7 0.2 -0.1
v -0.6 0.2 -0.1
v -0.5 0.2 -0.1
v -0.4 0.2 -0.1
v -0.2 0.3 0.5
v -0.1 0.3 0.5
v 0.4 0.3 0.5
v 0.5 0.3 0.5
v -0.2 0.3 0.4
v -0.1 0.3 0.4
v 0.4 0.3 0.4
v 0.5 0.3 0.4
v -0.8 0.4 0.4
v -0.7 0.4 0.4
v -0.4 0.4 0.4
v -0.3 0.4 0.4
v -0.8 0.4 0.3
v -0.7 0.4 0.3
v -0.4 0.4 0.3
v -0.3 0.4 0.3
v -0.7 0.5 0.4
v -0.4 0.5 0.4
v -0.8 0.5 0.3
v -0.7 0.5 0.3
v -0.4 0.5 0.3
v -0.3 0.5 0.3
v -0.8 0.5 -0.1
v -0.3 0.5 -0.1

# faces
f 3/2/1 2/2/1 1/2/1
f 4/2/1 2/2/1 3/2/1
f 5/2/1 3/2/1 1/2/1
f 5/1/1 4/1/1 3/1/1
f 6/2/1 2/2/1 4/2/1
f 6/1/1 4/1/1 5/1/1
f 7/2/1 5/2/1 1/2/1
f 7/2/1 6/2/1 5/2/1
f 8/2/1 2/2/1 6/2/1
f 8/2/1 6/2/1 7/2/1
f 11/3/1 10/3/1 9/3/1
f 14/3/1 11/3/1 9/3/1
f 14/3/1 12/3/1 11/3/1
f 15/3/1 14/3/1 13/3/1
f 16/3/1 12/3/1 14/3/1
f 16/3/1 14/3/1 15/3/1
f 17/3/1 12/3/1 16/3/1
f 18/3/1 12/3/1 17/3/1
f 23/3/1 22/3/1 21/3/1
f 24/3/1 22/3/1 23/3/1
f 25/3/1 20/3/1 19/3/1
f 26/3/1 20/3/1 25/3/1
f 29/3/1 28/3/1 27/3/1
f 30/3/1 28/3/1 29/3/1
f 33/3/1 32/3/1 31/3/1
f 34/3/1 32/3/1 33/3/1
f 37/3/1 36/3/1 35/3/1
f 38/3/1 36/3/1 37/3/1
f 43/3/1 40/3/1 39/3/1
f 44/3/1 40/3/1 43/3/1
f 45/3/1 42/3/1 41/3/1
f 46/3/1 42/3/1 45/3/1
f 53/3/1 48/3/1 47/3/1
f 54/3/1 48/3/1 53/3/1
f 55/3/1 50/3/1 49/3/1
f 56/3/1 50/3/1 55/3/1
f 57/3/1 52/3/1 51/3/1
f 58/3/1 52/3/1 57/3/1
f 61/3/1 60/3/1 59/3/1
f 62/3/1 60/3/1 61/3/1
f 65/3/1 64/3/1 63/3/1
f 66/3/1 64/3/1 65/3/1
f 69/3/1 68/3/1 67/3/1
f 70/3/1 68/3/1 69/3/1
f 75/3/1 72/3/1 71/3/1
f 76/3/1 72/3/1 75/3/1
f 79/3/1 74/3/1 73/3/1
f 80/3/1 74/3/1 79/3/1
f 81/3/1 78/3/1 77/3/1
f 82/3/1 78/3/1 81/3/1
f 87/3/1 84/3/1 83/3/1
f 88/3/1 84/3/1 87/3/1
f 89/3/1 86/3/1 85/3/1
f 90/3/1 86/3/1 89/3/1
f 93/3/1 92/3/1 91/3/1
f 94/3/1 92/3/1 93/3/1
f 99/3/1 96/3/1 95/3/1
f 100/3/1 96/3/1 99/3/1
f 101/3/1 98/3/1 97/3/1
f 102/3/1 98/3/1 101/3/1
f 103/3/2 104/3/2 105/3/2
f 105/3/2 104/3/2 106/3/2
f 107/3/2 108/3/2 109/3/2
f 109/3/2 108/3/2 110/3/2
f 113/3/2 114/3/2 115/3/2
f 115/3/2 114/3/2 116/3/2
f 111/3/2 112/3/2 117/3/2
f 117/3/2 112/3/2 118/3/2
f 119/3/2 120/3/2 121/3/2
f 121/3/2 120/3/2 122/3/2
f 123/3/2 124/3/2 125/3/2
f 123/3/2 125/3/2 128/3/2
f 125/3/2 126/3/2 128/3/2
f 127/3/2 128/3/2 129/3/2
f 128/3/2 126/3/2 130/3/2
f 129/3/2 128/3/2 130/3/2
f 130/3/2 126/3/2 131/3/2
f 131/3/2 126/3/2 132/3/2
f 133/3/2 134/3/2 135/3/2
f 135/3/2 134/3/2 136/3/2
f 137/3/2 138/3/2 141/3/2
f 141/3/2 138/3/2 142/3/2
f 139/3/2 140/3/2 143/3/2
f 143/3/2 140/3/2 144/3/2
f 145/3/2 146/3/2 147/3/2
f 147/3/2 146/3/2 148/3/2
f 149/3/2 150/3/2 151/3/2
f 151/3/2 150/3/2 152/3/2
f 153/3/2 154/3/2 155/3/2
f 155/3/2 154/3/2 156/3/2
f 157/3/2 158/3/2 163/3/2
f 163/3/2 158/3/2 164/3/2
f 159/3/2 160/3/2 165/3/2
f 165/3/2 160/3/2 166/3/2
f 161/3/2 162/3/2 167/3/2
f 167/3/2 162/3/2 168/3/2
f 169/3/2 170/3/2 171/3/2
f 171/3/2 170/3/2 172/3/2
f 172/3/2 170/3/2 173/3/2
f 173/3/2 170/3/2 174/3/2
f 172/3/2 173/3/2 175/3/2
f 175/3/2 173/3/2 176/3/2
f 177/3/2 178/3/2 181/3/2
f 181/3/2 178/3/2 182/3/2
f 179/3/2 180/3/2 183/3/2
f 183/3/2 180/3/2 184/3/2
f 185/2/2 186/2/2 187/2/2
f 187/2/2 186/2/2 188/2/2
f 185/2/2 187/2/2 189/2/2
f 187/1/2 188/1/2 189/1/2
f 188/2/2 186/2/2 190/2/2
f 189/1/2 188/1/2 190/1/2
f 185/2/2 189/2/2 191/2/2
f 189/2/2 190/2/2 191/2/2
f 190/2/2 186/2/2 192/2/2
f 191/2/2 190/2/2 192/2/2
f 195/2/3 194/2/3 193/2/3
f 196/2/3 194/2/3 195/2/3
f 197/2/3 195/2/3 193/2/3
f 197/1/3 196/1/3 195/1/3
f 198/2/3 194/2/3 196/2/3
f 198/1/3 196/1/3 197/1/3
f 199/2/3 197/2/3 193/2/3
f 199/2/3 198/2/3 197/2/3
f 200/2/3 194/2/3 198/2/3
f 200/2/3 198/2/3 199/2/3
f 203/3/3 202/3/3 201/3/3
f 204/3/3 202/3/3 203/3/3
f 207/3/3 206/3/3 205/3/3
f 208/3/3 206/3/3 207/3/3
f 211/3/3 210/3/3 209/3/3
f 212/3/3 210/3/3 211/3/3
f 216/3/3 214/3/3 213/3/3
f 217/3/3 214/3/3 216/3/3
f 218/3/3 214/3/3 217/3/3
f 219/3/3 216/3/3 215/3/3
f 219/3/3 217/3/3 216/3/3
f 220/3/3 217/3/3 219/3/3
f 221/3/3 219/3/3 215/3/3
f 223/3/3 221/3/3 215/3/3
f 223/3/3 222/3/3 221/3/3
f 224/3/3 222/3/3 223/3/3
f 225/3/3 222/3/3 224/3/3
f 227/3/3 225/3/3 224/3/3
f 227/3/3 226/3/3 225/3/3
f 228/3/3 226/3/3 227/3/3
f 232/3/3 230/3/3 229/3/3
f 233/3/3 230/3/3 232/3/3
f 235/3/3 232/3/3 231/3/3
f 235/3/3 234/3/3 233/3/3
f 235/3/3 233/3/3 232/3/3
f 236/3/3 234/3/3 235/3/3
f 237/3/3 234/3/3 236/3/3
f 238/3/3 234/3/3 237/3/3
f 239/3/3 237/3/3 236/3/3
f 240/3/3 237/3/3 239/3/3
f 245/3/3 242/3/3 241/3/3
f 246/3/3 242/3/3 245/3/3
f 247/3/3 244/3/3 243/3/3
f 248/3/3 244/3/3 247/3/3
f 253/3/3 250/3/3 249/3/3
f 254/3/3 250/3/3 253/3/3
f 255/3/3 252/3/3 251/3/3
f 256/3/3 252/3/3 255/3/3
f 259/3/3 258/3/3 257/3/3
f 260/3/3 258/3/3 259/3/3
f 263/3/3 262/3/3 261/3/3
f 264/3/3 262/3/3 263/3/3
f 267/3/3 266/3/3 265/3/3
f 268/3/3 266/3/3 267/3/3
f 271/3/3 270/3/3 269/3/3
f 272/3/3 270/3/3 271/3/3
f 275/3/3 274/3/3 273/3/3
f 276/3/3 274/3/3 275/3/3
f 279/3/3 278/3/3 277/3/3
f 280/3/3 278/3/3 279/3/3
f 283/3/3 282/3/3 281/3/3
f 284/3/3 282/3/3 283/3/3
f 285/3/4 286/3/4 287/3/4
f 287/3/4 286/3/4 288/3/4
f 289/3/4 290/3/4 291/3/4
f 291/3/4 290/3/4 292/3/4
f 293/3/4 294/3/4 296/3/4
f 296/3/4 294/3/4 297/3/4
f 297/3/4 294/3/4 298/3/4
f 295/3/4 296/3/4 299/3/4
f 296/3/4 297/3/4 299/3/4
f 299/3/4 297/3/4 300/3/4
f 295/3/4 299/3/4 301/3/4
f 295/3/4 301/3/4 303/3/4
f 301/3/4 302/3/4 303/3/4
f 303/3/4 302/3/4 304/3/4
f 304/3/4 302/3/4 305/3/4
f 304/3/4 305/3/4 307/3/4
f 305/3/4 306/3/4 307/3/4
f 307/3/4 306/3/4 308/3/4
f 309/3/4 310/3/4 311/3/4
f 311/3/4 310/3/4 312/3/4
f 313/3/4 314/3/4 315/3/4
f 315/3/4 314/3/4 316/3/4
f 317/3/4 318/3/4 319/3/4
f 319/3/4 318/3/4 320/3/4
f 321/3/4 322/3/4 323/3/4
f 323/3/4 322/3/4 324/3/4
f 325/3/4 326/3/4 327/3/4
f 327/3/4 326/3/4 328/3/4
f 329/3/4 330/3/4 333/3/4
f 333/3/4 330/3/4 334/3/4
f 331/3/4 332/3/4 335/3/4
f 335/3/4 332/3/4 336/3/4
f 337/3/4 338/3/4 340/3/4
f 340/3/4 338/3/4 341/3/4
f 341/3/4 338/3/4 342/3/4
f 339/3/4 340/3/4 343/3/4
f 340/3/4 341/3/4 343/3/4
f 342/3/4 338/3/4 344/3/4
f 339/3/4 343/3/4 345/3/4
f 343/3/4 344/3/4 345/3/4
f 344/3/4 338/3/4 346/3/4
f 345/3/4 344/3/4 346/3/4
f 339/3/4 345/3/4 347/3/4
f 347/3/4 345/3/4 348/3/4
f 348/3/4 345/3/4 349/3/4
f 346/3/4 338/3/4 350/3/4
f 348/3/4 349/3/4 351/3/4
f 349/3/4 350/3/4 351/3/4
f 350/3/4 338/3/4 352/3/4
f 351/3/4 350/3/4 352/3/4
f 353/3/4 354/3/4 355/3/4
f 355/3/4 354/3/4 356/3/4
f 357/3/4 358/3/4 359/3/4
f 359/3/4 358/3/4 360/3/4
f 361/3/4 362/3/4 363/3/4
f 363/3/4 362/3/4 364/3/4
f 365/3/4 366/3/4 367/3/4
f 367/3/4 366/3/4 368/3/4
f 369/3/4 370/3/4 371/3/4
f 371/3/4 370/3/4 372/3/4
f 373/3/4 374/3/4 375/3/4
f 375/3/4 374/3/4 376/3/4
f 377/2/4 378/2/4 379/2/4
f 379/2/4 378/2/4 380/2/4
f 377/2/4 379/2/4 381/2/4
f 379/1/4 380/1/4 381/1/4
f 380/2/4 378/2/4 382/2/4
f 381/1/4 380/1/4 382/1/4
f 377/2/4 381/2/4 383/2/4
f 381/2/4 382/2/4 383/2/4
f 382/2/4 378/2/4 384/2/4
f 383/2/4 382/2/4 384/2/4
f 387/2/5 386/2/5 385/2/5
f 388/2/5 386/2/5 387/2/5
f 389/1/5 388/1/5 387/1/5
f 390/1/5 388/1/5 389/1/5
f 391/1/5 389/1/5 387/1/5
f 391/4/5 390/4/5 389/4/5
f 392/1/5 388/1/5 390/1/5
f 392/4/5 390/4/5 391/4/5
f 393/2/5 387/2/5 385/2/5
f 393/1/5 391/1/5 387/1/5
f 393/1/5 392/1/5 391/1/5
f 394/1/5 388/1/5 392/1/5
f 394/1/5 392/1/5 393/1/5
f 394/2/5 386/2/5 388/2/5
f 395/2/5 393/2/5 385/2/5
f 395/2/5 394/2/5 393/2/5
f 396/2/5 386/2/5 394/2/5
f 396/2/5 394/2/5 395/2/5
f 399/3/5 398/3/5 397/3/5
f 400/3/5 398/3/5 399/3/5
f 405/3/5 402/3/5 401/3/5
f 406/3/5 402/3/5 405/3/5
f 407/3/5 404/3/5 403/3/5
f 408/3/5 404/3/5 407/3/5
f 413/3/5 410/3/5 409/3/5
f 414/3/5 410/3/5 413/3/5
f 415/3/5 412/3/5 411/3/5
f 416/3/5 412/3/5 415/3/5
f 421/3/5 418/3/5 417/3/5
f 422/3/5 418/3/5 421/3/5
f 423/3/5 420/3/5 419/3/5
f 424/3/5 420/3/5 423/3/5
f 425/2/6 426/2/6 427/2/6
f 427/2/6 426/2/6 428/2/6
f 427/1/6 428/1/6 429/1/6
f 429/1/6 428/1/6 430/1/6
f 430/1/6 428/1/6 431/1/6
f 431/1/6 428/1/6 432/1/6
f 430/1/6 431/1/6 433/1/6
f 433/1/6 431/1/6 434/1/6
f 427/1/6 429/1/6 435/1/6
f 432/1/6 428/1/6 438/1/6
f 435/1/6 436/1/6 439/1/6
f 427/1/6 435/1/6 439/1/6
f 439/1/6 436/1/6 440/1/6
f 427/1/6 439/1/6 441/1/6
f 441/1/6 439/1/6 442/1/6
f 442/1/6 439/1/6 443/1/6
f 427/1/6 441/1/6 445/1/6
f 445/1/6 441/1/6 446/1/6
f 443/1/6 444/1/6 447/1/6
f 442/1/6 443/1/6 447/1/6
f 447/1/6 444/1/6 448/1/6
f 448/1/6 444/1/6 449/1/6
f 449/1/6 444/1/6 450/1/6
f 437/1/6 438/1/6 451/1/6
f 438/1/6 428/1/6 452/1/6
f 451/1/6 438/1/6 452/1/6
f 448/1/6 449/1/6 455/1/6
f 453/1/6 454/1/6 456/1/6
f 456/1/6 454/1/6 457/1/6
f 452/1/6 428/1/6 458/1/6
f 427/1/6 445/1/6 459/1/6
f 456/1/6 457/1/6 462/1/6
f 448/1/6 455/1/6 462/1/6
f 457/1/6 458/1/6 462/1/6
f 455/1/6 456/1/6 462/1/6
f 459/1/6 460/1/6 463/1/6
f 461/1/6 462/1/6 464/1/6
f 462/1/6 458/1/6 465/1/6
f 464/1/6 462/1/6 465/1/6
f 465/1/6 458/1/6 466/1/6
f 463/1/6 464/1/6 467/1/6
f 464/1/6 465/1/6 467/1/6
f 467/1/6 465/1/6 468/1/6
f 463/1/6 467/1/6 469/1/6
f 466/1/6 458/1/6 471/1/6
f 471/1/6 458/1/6 472/1/6
f 469/1/6 470/1/6 473/1/6
f 472/1/6 458/1/6 475/1/6
f 475/1/6 458/1/6 476/1/6
f 473/1/6 474/1/6 477/1/6
f 476/1/6 458/1/6 479/1/6
f 479/1/6 458/1/6 480/1/6
f 477/1/6 478/1/6 481/1/6
f 480/1/6 458/1/6 484/1/6
f 481/1/6 482/1/6 485/1/6
f 483/1/6 484/1/6 486/1/6
f 425/2/6 427/2/6 487/2/6
f 485/1/6 486/1/6 487/1/6
f 459/1/6 463/1/6 487/1/6
f 427/1/6 459/1/6 487/1/6
f 481/1/6 485/1/6 487/1/6
f 463/1/6 469/1/6 487/1/6
f 477/1/6 481/1/6 487/1/6
f 469/1/6 473/1/6 487/1/6
f 473/1/6 477/1/6 487/1/6
f 486/1/6 484/1/6 488/1/6
f 487/1/6 486/1/6 488/1/6
f 428/2/6 426/2/6 488/2/6
f 484/1/6 458/1/6 488/1/6
f 458/1/6 428/1/6 488/1/6
f 425/2/6 487/2/6 489/2/6
f 487/2/6 488/2/6 489/2/6
f 488/2/6 426/2/6 490/2/6
f 489/2/6 488/2/6 490/2/6
f 491/3/6 492/3/6 495/3/6
f 493/3/6 494/3/6 496/3/6
f 491/3/6 495/3/6 497/3/6
f 495/3/6 496/3/6 497/3/6
f 497/3/6 496/3/6 498/3/6
f 496/3/6 494/3/6 499/3/6
f 498/3/6 496/3/6 499/3/6
f 499/3/6 494/3/6 500/3/6
f 498/3/6 499/3/6 503/3/6
f 503/3/6 499/3/6 504/3/6
f 501/3/6 502/3/6 505/3/6
f 505/3/6 502/3/6 506/3/6
f 507/3/6 508/3/6 510/3/6
f 510/3/6 508/3/6 511/3/6
f 510/3/6 511/3/6 513/3/6
f 511/3/6 512/3/6 513/3/6
f 509/3/6 510/3/6 513/3/6
f 513/3/6 512/3/6 514/3/6
f 509/3/6 513/3/6 515/3/6
f 515/3/6 513/3/6 516/3/6
f 514/3/6 512/3/6 517/3/6
f 517/3/6 512/3/6 518/3/6
f 519/3/6 520/3/6 522/3/6
f 521/3/6 522/3/6 523/3/6
f 522/3/6 520/3/6 524/3/6
f 523/3/6 522/3/6 524/3/6
f 524/3/6 520/3/6 525/3/6
f 525/3/6 526/3/6 527/3/6
f 524/3/6 525/3/6 527/3/6
f 527/3/6 526/3/6 528/3/6
f 528/3/6 526/3/6 529/3/6
f 529/3/6 530/3/6 531/3/6
f 528/3/6 529/3/6 531/3/6
f 531/3/6 530/3/6 532/3/6
f 532/3/6 530/3/6 533/3/6
f 533/3/6 534/3/6 535/3/6
f 532/3/6 533/3/6 535/3/6
f 535/3/6 534/3/6 536/3/6
f 536/3/6 534/3/6 537/3/6
f 537/3/6 534/3/6 538/3/6
f 536/3/6 537/3/6 539/3/6
f 539/3/6 537/3/6 540/3/6
f 541/3/6 542/3/6 545/3/6
f 545/3/6 542/3/6 546/3/6
f 543/3/6 544/3/6 547/3/6
f 547/3/6 544/3/6 548/3/6
f 549/3/6 550/3/6 553/3/6
f 553/3/6 550/3/6 554/3/6
f 551/3/6 552/3/6 555/3/6
f 555/3/6 552/3/6 556/3/6
f 557/3/6 558/3/6 561/3/6
f 561/3/6 558/3/6 562/3/6
f 559/3/6 560/3/6 563/3/6
f 563/3/6 560/3/6 564/3/6
f 565/3/6 566/3/6 569/3/6
f 569/3/6 566/3/6 570/3/6
f 567/3/6 568/3/6 571/3/6
f 571/3/6 568/3/6 572/3/6
f 573/3/6 574/3/6 576/3/6
f 576/3/6 574/3/6 577/3/6
f 575/3/6 576/3/6 579/3/6
f 577/3/6 578/3/6 579/3/6
f 576/3/6 577/3/6 579/3/6
f 579/3/6 578/3/6 580/3/6
