# MagicaVoxel @ Ephtracy

# group
o 

# material
mtllib door1.mtl
usemtl palette

# normals
vn -1 0 0
vn 1 0 0
vn 0 0 1
vn 0 0 -1
vn 0 -1 0
vn 0 1 0

# texcoords
vt 0.0449219 0.5
vt 0.396484 0.5
vt 0.404297 0.5

# verts
v -1 -5 0.1
v -1 -5 -0.3
v -1 0 0.1
v -1 0 -0.3
v -1 3.4 0.1
v -1 3.4 -0.3
v -1 5 0.1
v -1 5 -0.3
v -0.8 4 0.2
v -0.8 4 0.1
v -0.8 4.3 0.2
v -0.8 4.3 0.1
v 0.3 3.6 0.2
v 0.3 3.6 0.1
v 0.3 3.9 0.2
v 0.3 3.9 0.1
v 0.8 0.2 0.1
v 0.8 0.2 -0.3
v 0.8 3.2 0.1
v 0.8 3.2 -0.3
v -0.8 0.2 0.1
v -0.8 0.2 -0.3
v -0.8 3.2 0.1
v -0.8 3.2 -0.3
v -0.2 4 0.2
v -0.2 4 0.1
v -0.2 4.3 0.2
v -0.2 4.3 0.1
v 0.9 3.6 0.2
v 0.9 3.6 0.1
v 0.9 3.9 0.2
v 0.9 3.9 0.1
v 1 -5 0.1
v 1 -5 -0.3
v 1 0 0.1
v 1 0 -0.3
v 1 3.4 0.1
v 1 3.4 -0.3
v 1 5 0.1
v 1 5 -0.3
v -0.8 4 0.2
v -0.8 4.3 0.2
v -0.2 4 0.2
v -0.2 4.3 0.2
v 0.3 3.6 0.2
v 0.3 3.9 0.2
v 0.9 3.6 0.2
v 0.9 3.9 0.2
v -1 -5 0.1
v -1 0 0.1
v -1 3.4 0.1
v -1 5 0.1
v -0.8 0.2 0.1
v -0.8 3.2 0.1
v -0.8 4 0.1
v -0.8 4.3 0.1
v -0.2 4 0.1
v -0.2 4.3 0.1
v 0.3 3.6 0.1
v 0.3 3.9 0.1
v 0.8 0.2 0.1
v 0.8 3.2 0.1
v 0.9 3.6 0.1
v 0.9 3.9 0.1
v 1 -5 0.1
v 1 0 0.1
v 1 3.4 0.1
v 1 5 0.1
v -1 -5 -0.3
v -1 0 -0.3
v -1 3.4 -0.3
v -1 5 -0.3
v -0.8 0.2 -0.3
v -0.8 3.2 -0.3
v 0.8 0.2 -0.3
v 0.8 3.2 -0.3
v 1 -5 -0.3
v 1 0 -0.3
v 1 3.4 -0.3
v 1 5 -0.3
v -1 -5 0.1
v 1 -5 0.1
v -1 -5 -0.3
v 1 -5 -0.3
v -0.8 3.2 0.1
v 0.8 3.2 0.1
v -0.8 3.2 -0.3
v 0.8 3.2 -0.3
v 0.3 3.6 0.2
v 0.9 3.6 0.2
v 0.3 3.6 0.1
v 0.9 3.6 0.1
v -0.8 4 0.2
v -0.2 4 0.2
v -0.8 4 0.1
v -0.2 4 0.1
v -0.8 0.2 0.1
v 0.8 0.2 0.1
v -0.8 0.2 -0.3
v 0.8 0.2 -0.3
v 0.3 3.9 0.2
v 0.9 3.9 0.2
v 0.3 3.9 0.1
v 0.9 3.9 0.1
v -0.8 4.3 0.2
v -0.2 4.3 0.2
v -0.8 4.3 0.1
v -0.2 4.3 0.1
v -1 5 0.1
v 1 5 0.1
v -1 5 -0.3
v 1 5 -0.3

# faces
f 3/3/1 2/3/1 1/3/1
f 4/3/1 2/3/1 3/3/1
f 5/1/1 4/1/1 3/1/1
f 6/1/1 4/1/1 5/1/1
f 7/3/1 6/3/1 5/3/1
f 8/3/1 6/3/1 7/3/1
f 11/2/1 10/2/1 9/2/1
f 12/2/1 10/2/1 11/2/1
f 15/2/1 14/2/1 13/2/1
f 16/2/1 14/2/1 15/2/1
f 19/1/1 18/1/1 17/1/1
f 20/1/1 18/1/1 19/1/1
f 21/1/2 22/1/2 23/1/2
f 23/1/2 22/1/2 24/1/2
f 25/2/2 26/2/2 27/2/2
f 27/2/2 26/2/2 28/2/2
f 29/2/2 30/2/2 31/2/2
f 31/2/2 30/2/2 32/2/2
f 33/3/2 34/3/2 35/3/2
f 35/3/2 34/3/2 36/3/2
f 35/1/2 36/1/2 37/1/2
f 37/1/2 36/1/2 38/1/2
f 37/3/2 38/3/2 39/3/2
f 39/3/2 38/3/2 40/3/2
f 43/2/3 42/2/3 41/2/3
f 44/2/3 42/2/3 43/2/3
f 47/2/3 46/2/3 45/2/3
f 48/2/3 46/2/3 47/2/3
f 53/1/3 51/1/3 50/1/3
f 54/1/3 51/1/3 53/1/3
f 55/3/3 52/3/3 51/3/3
f 56/3/3 52/3/3 55/3/3
f 57/3/3 55/3/3 51/3/3
f 58/3/3 52/3/3 56/3/3
f 59/3/3 57/3/3 51/3/3
f 59/3/3 58/3/3 57/3/3
f 60/3/3 58/3/3 59/3/3
f 61/1/3 53/1/3 50/1/3
f 62/1/3 51/1/3 54/1/3
f 63/3/3 59/3/3 51/3/3
f 64/3/3 58/3/3 60/3/3
f 65/3/3 50/3/3 49/3/3
f 66/1/3 61/1/3 50/1/3
f 66/3/3 50/3/3 65/3/3
f 66/1/3 62/1/3 61/1/3
f 67/3/3 64/3/3 63/3/3
f 67/1/3 62/1/3 66/1/3
f 67/3/3 63/3/3 51/3/3
f 67/1/3 51/1/3 62/1/3
f 68/3/3 52/3/3 58/3/3
f 68/3/3 64/3/3 67/3/3
f 68/3/3 58/3/3 64/3/3
f 70/1/4 71/1/4 73/1/4
f 73/1/4 71/1/4 74/1/4
f 70/1/4 73/1/4 75/1/4
f 74/1/4 71/1/4 76/1/4
f 69/3/4 70/3/4 77/3/4
f 75/1/4 76/1/4 78/1/4
f 77/3/4 70/3/4 78/3/4
f 70/1/4 75/1/4 78/1/4
f 71/3/4 72/3/4 79/3/4
f 78/1/4 76/1/4 79/1/4
f 76/1/4 71/1/4 79/1/4
f 79/3/4 72/3/4 80/3/4
f 83/3/5 82/3/5 81/3/5
f 84/3/5 82/3/5 83/3/5
f 87/1/5 86/1/5 85/1/5
f 88/1/5 86/1/5 87/1/5
f 91/2/5 90/2/5 89/2/5
f 92/2/5 90/2/5 91/2/5
f 95/2/5 94/2/5 93/2/5
f 96/2/5 94/2/5 95/2/5
f 97/1/6 98/1/6 99/1/6
f 99/1/6 98/1/6 100/1/6
f 101/2/6 102/2/6 103/2/6
f 103/2/6 102/2/6 104/2/6
f 105/2/6 106/2/6 107/2/6
f 107/2/6 106/2/6 108/2/6
f 109/3/6 110/3/6 111/3/6
f 111/3/6 110/3/6 112/3/6
